<svg version="1.1" id="Layer_1" xmlns="http://www.w3.org/2000/svg" xmlns:xlink="http://www.w3.org/1999/xlink" x="0px" y="0px"
	 width="100%" viewBox="0 0 408 612" enable-background="new 0 0 408 612" xml:space="preserve">
<path fill="#000000" opacity="1.000000" stroke="none" 
	d="
M1.000001,168.000000 
	C1.000000,112.345078 1.000000,56.690159 1.000000,1.017619 
	C136.959549,1.017619 272.919098,1.017619 408.939331,1.017619 
	C408.939331,204.916504 408.939331,408.833038 408.939331,612.874756 
	C273.112274,612.874756 137.224411,612.874756 1.000000,612.874756 
	C1.000000,465.643524 1.000000,318.286774 1.358968,170.217987 
	C2.141432,170.660675 2.637161,171.794708 2.974932,172.973984 
	C4.004261,176.567734 5.298028,179.856522 10.061622,180.323807 
	C23.898409,180.769714 37.543083,180.805695 51.490417,181.089676 
	C53.861660,188.994461 55.802319,196.688629 58.027138,204.299744 
	C61.908695,217.578598 65.965195,230.806320 69.997681,244.288422 
	C70.046974,244.521362 70.180809,244.978378 70.100845,245.369415 
	C72.666649,254.200974 75.312431,262.641479 77.996368,271.479767 
	C83.507401,291.196991 88.949081,310.525391 94.463547,329.832977 
	C98.509987,344.000641 102.786797,358.105042 106.584991,372.337952 
	C107.074715,374.173065 105.872223,377.963684 104.487068,378.544861 
	C96.952682,381.706116 92.657181,387.258026 89.712051,394.627808 
	C85.403847,405.408508 86.169182,415.652618 93.424934,424.481323 
	C100.237877,432.771179 109.293564,437.691223 120.614792,437.020447 
	C123.521973,436.848175 126.448036,436.994598 129.479584,436.994598 
	C129.266006,437.742462 129.264191,438.093048 129.091644,438.303925 
	C117.985390,451.880341 116.197212,466.948761 126.877266,480.966125 
	C134.516602,490.992615 145.074112,496.631989 158.581604,494.221161 
	C160.369781,493.902008 162.963882,494.817719 164.335052,496.082611 
	C167.880524,499.353241 170.849930,503.237549 174.232162,506.698212 
	C181.068512,513.693237 188.107925,520.491760 194.858078,527.567383 
	C196.076187,528.844238 196.671158,531.012207 196.912781,532.852966 
	C197.256775,535.473572 197.211716,538.190613 196.971268,540.833557 
	C196.414093,546.958008 199.948425,551.410461 203.913513,554.777527 
	C213.312698,562.758911 223.415924,569.905212 233.091766,577.569336 
	C238.263596,581.665833 244.278824,585.063660 250.475266,583.676514 
	C260.581848,581.414062 270.663025,580.989136 281.334229,580.890015 
	C294.929749,580.924622 308.050781,580.861206 321.620941,580.869263 
	C325.401672,580.948120 328.738098,581.074402 332.063904,580.939148 
	C339.927155,580.619385 344.970215,575.265015 344.964844,567.413940 
	C344.959412,559.417786 345.464508,551.379089 344.789795,543.440247 
	C344.331696,538.050781 343.206116,532.263733 340.652039,527.600403 
	C335.201385,517.648376 328.383026,508.405182 328.175476,496.413879 
	C328.072510,490.466766 325.887695,484.970734 330.199036,478.694122 
	C336.565125,469.426025 337.572479,458.632935 331.060974,448.320770 
	C328.783905,444.714569 326.473267,441.129486 323.835480,436.998413 
	C328.113464,436.998413 331.892700,437.059540 335.669220,436.984589 
	C341.967072,436.859680 346.613953,433.309052 347.008820,428.424927 
	C347.532166,421.952087 343.860107,417.358765 336.916962,415.672699 
	C312.440796,415.247681 288.178253,415.218262 263.520264,415.311340 
	C261.526794,415.631439 259.921295,416.043945 258.331970,415.988831 
	C251.953171,415.767700 245.578934,415.145142 239.203888,415.156555 
	C231.834839,415.169769 224.466721,415.694183 216.890228,415.604675 
	C183.460052,415.207001 150.237869,415.201294 116.657227,415.115601 
	C111.194504,412.683441 110.326660,408.260162 111.070511,403.424774 
	C111.768112,398.890076 115.532745,396.716583 119.405373,396.146271 
	C127.198174,394.998627 135.107422,394.624390 142.974136,394.000519 
	C152.166214,393.271454 161.371994,392.706482 170.557770,391.908661 
	C184.793823,390.672180 199.014923,389.264282 213.248352,387.996429 
	C221.766724,387.237610 230.304214,386.689728 238.819473,385.899933 
	C252.217026,384.657227 265.600830,383.266876 278.995178,381.989014 
	C283.585968,381.551025 288.207703,381.407013 292.786224,380.877258 
	C303.350342,379.654999 313.869781,377.976135 324.456573,377.037201 
	C339.697021,375.685516 352.242462,369.436523 360.014587,356.234741 
	C364.554138,348.523895 367.135498,339.629150 370.337860,331.168640 
	C377.184357,313.080414 383.932190,294.954071 390.584625,276.793549 
	C395.268036,264.008301 399.751617,251.149582 404.275208,238.306320 
	C406.036163,233.306580 408.590546,228.290665 404.832214,222.813873 
	C404.578369,222.362000 404.294434,222.176163 404.005249,221.995163 
	C404.000000,222.000000 404.009949,221.990250 403.943665,221.739853 
	C403.592163,221.312286 403.306976,221.135117 403.013306,220.980469 
	C403.004852,221.003006 403.038391,220.967606 402.951141,220.682053 
	C402.252319,219.907990 401.640717,219.419495 401.017334,218.962280 
	C401.005554,218.993576 401.067352,218.968018 400.928528,218.641907 
	C399.539215,217.868607 398.288696,217.421417 397.035034,216.997604 
	C397.031860,217.020996 397.069824,216.992783 396.851959,216.610962 
	C352.390686,216.212082 308.147247,216.194992 263.601501,216.100204 
	C262.882843,215.991547 262.466522,215.960571 262.026459,215.960999 
	C262.002686,215.992416 262.072113,215.955261 262.036774,215.578766 
	C261.351349,213.444366 260.701263,211.686432 260.034027,209.964600 
	C260.016876,210.000717 260.082001,209.954361 260.038879,209.608063 
	C259.661438,208.469879 259.327118,207.678009 258.983704,206.572388 
	C258.925903,205.844803 258.877136,205.430939 258.891998,204.676514 
	C258.319824,203.196625 257.684052,202.057343 257.037231,200.952789 
	C257.026245,200.987549 257.098663,200.979156 257.056396,200.627228 
	C256.682068,199.480347 256.350006,198.685410 255.984009,197.678329 
	C255.950073,197.466171 255.798492,197.064117 255.867462,196.664017 
	C255.293060,194.132629 254.649673,192.001328 253.983597,189.667999 
	C253.960892,189.465942 253.826645,189.082123 253.909332,188.675781 
	C253.069321,185.037033 252.111938,181.814041 251.230087,178.570526 
	C247.806305,165.977707 244.578156,153.328156 240.914627,140.805786 
	C239.418839,135.692947 236.999176,130.850418 234.975464,125.689194 
	C234.951111,125.493477 234.827652,125.118835 234.880341,124.839478 
	C234.636993,124.361427 234.340988,124.162735 234.024673,123.964546 
	C234.004379,123.965050 234.042816,123.943420 234.045853,123.587326 
	C233.390076,122.797646 232.731247,122.364067 231.996155,121.686310 
	C231.635391,121.271683 231.350876,121.101250 231.043976,120.569870 
	C229.028763,118.786263 227.035950,117.363594 225.020935,115.965668 
	C224.998734,115.990425 225.062302,115.971046 224.991425,115.718170 
	C224.627808,115.296974 224.335052,115.128647 224.020844,114.978989 
	C223.999390,114.997658 224.039780,114.955292 223.980255,114.703827 
	C223.631241,114.291809 223.341721,114.131264 223.032654,113.974518 
	C223.013107,113.978310 223.031189,113.942757 222.975891,113.665031 
	C222.587143,113.303421 222.253693,113.219543 221.717026,113.077904 
	C221.513809,113.020142 221.093643,112.975525 220.991882,112.735405 
	C220.585434,112.404022 220.280777,112.312759 219.763489,112.139748 
	C219.550858,112.057991 219.102158,111.979095 219.012604,111.725662 
	C218.624573,111.294014 218.326111,111.115799 218.011749,110.964645 
	C217.995850,110.991707 218.051315,110.962402 217.983704,110.711212 
	C217.627243,110.291229 217.338379,110.122437 217.023895,109.972229 
	C216.998276,109.990807 217.045181,109.944336 216.956665,109.623886 
	C215.923767,108.854012 214.979401,108.404587 214.015076,107.972595 
	C213.995132,107.990021 214.042603,107.970406 213.968094,107.702011 
	C213.563217,107.346924 213.232849,107.260239 212.702499,107.105080 
	C212.502518,107.036606 212.084076,106.976158 212.002213,106.719429 
	C211.625000,106.275902 211.329651,106.089104 210.939590,105.635139 
	C210.262848,104.905869 209.680817,104.443756 208.948700,103.669189 
	C207.205475,102.539177 205.612350,101.721619 203.870911,100.602478 
	C197.828629,96.178802 191.934662,92.056709 186.030304,87.954514 
	C186.019913,87.974411 186.059692,87.950012 186.029953,87.586777 
	C185.694565,86.668983 185.527206,85.829071 185.062042,85.603653 
	C179.924301,83.113945 179.308517,79.338295 180.940552,74.177864 
	C183.926132,64.737602 186.503372,55.164467 189.094849,45.604439 
	C191.257446,37.626572 189.673050,34.166630 182.740311,30.652805 
	C170.417297,30.227064 158.188980,30.234385 145.601593,30.149891 
	C141.899658,28.382879 138.556778,26.707685 134.974915,24.648798 
	C119.128532,24.178396 103.521164,24.078644 87.913658,24.048637 
	C87.229179,24.047321 86.543465,24.684483 85.545990,25.164154 
	C82.119324,27.880087 80.555664,31.010429 80.963348,35.218891 
	C81.282028,38.508522 81.131905,41.857838 81.003845,45.173435 
	C80.757515,51.551498 83.526337,56.229038 88.589630,59.917976 
	C92.084435,62.464165 95.543999,65.142677 98.610420,68.175476 
	C105.044899,74.539413 111.209816,81.175903 117.506332,87.699890 
	C117.527267,87.699287 117.559181,87.724670 117.663475,87.931458 
	C117.958008,88.388618 118.108688,88.660889 118.185745,89.211014 
	C118.421928,89.660042 118.692184,89.853119 118.982254,90.351166 
	C119.310471,91.107208 119.618866,91.558289 119.932877,92.033142 
	C119.938484,92.056908 119.985100,92.071510 120.004868,92.534035 
	C120.357025,103.061478 120.763397,113.124680 120.997665,123.191887 
	C121.174561,130.793533 121.131393,138.400299 121.115318,146.333923 
	C121.094002,147.106491 121.143539,147.549927 121.028252,148.333221 
	C120.579872,150.098541 120.296318,151.524033 119.985611,152.954376 
	C119.958466,152.959259 119.954453,153.014282 119.626221,153.179672 
	C119.277550,154.567734 119.257103,155.790421 119.045975,157.356384 
	C118.010208,160.258209 116.956184,162.769073 116.359451,165.384277 
	C114.608604,173.057373 113.529510,180.689865 119.974472,187.021622 
	C119.999458,187.005493 119.956718,187.048233 119.986664,187.342163 
	C120.425941,188.227936 120.835274,188.819763 121.296616,189.561340 
	C121.348610,189.711105 121.648071,189.815277 121.760880,190.055420 
	C122.317459,190.976349 122.761238,191.657135 123.252151,192.500870 
	C123.299294,192.663818 123.618774,192.778000 123.747955,193.059235 
	C128.351700,200.263016 134.896622,206.351242 132.489594,215.915787 
	C118.235146,216.018219 104.443428,216.065369 90.598862,216.064438 
	C90.545998,216.016373 90.410172,216.060760 90.271210,215.717316 
	C89.738892,214.813049 89.345543,214.252197 88.961151,213.520020 
	C88.970108,213.348679 88.843910,213.029587 88.918488,212.633514 
	C87.316521,206.370956 85.736649,200.474670 83.940239,194.645111 
	C81.398842,186.398010 78.697578,178.200195 76.052353,169.972900 
	C76.040047,169.964508 76.028267,169.937149 76.009064,169.571533 
	C75.348778,167.805939 74.707687,166.405960 74.060661,164.980072 
	C74.054718,164.954178 74.009338,164.926468 73.989731,164.555069 
	C71.678352,162.123871 69.386597,160.064056 67.078003,157.973312 
	C67.061165,157.942368 67.006058,157.898468 66.854843,157.578461 
	C65.155495,156.834991 63.607357,156.411514 61.851967,155.599487 
	C47.438957,155.207626 33.233208,155.204315 18.627075,155.269867 
	C17.296577,155.564240 16.363253,155.997375 15.436840,155.983063 
	C6.597738,155.846497 3.849691,158.785507 2.364311,166.518814 
	C2.256671,167.079208 1.470628,167.509323 1.000001,168.000000 
z"/>
<path fill="#F86812" opacity="1.000000" stroke="none" 
	d="
M67.094841,158.004257 
	C69.386597,160.064056 71.678352,162.123871 73.600433,164.582794 
	C68.809593,165.866974 65.157379,167.509232 65.270164,173.308746 
	C66.499413,173.086960 67.567238,172.894302 68.784210,172.674728 
	C69.366409,177.467194 67.087341,177.792450 64.196609,176.000183 
	C60.657032,173.805664 57.859341,175.950882 55.615440,177.652664 
	C54.305832,178.645859 53.787487,181.964783 54.296631,183.867081 
	C57.787647,196.910416 61.803429,209.812973 65.319962,222.849945 
	C67.201912,229.826981 68.426903,236.981201 69.948380,244.055466 
	C65.965195,230.806320 61.908695,217.578598 58.027138,204.299744 
	C55.802319,196.688629 53.861660,188.994461 51.170017,180.789505 
	C36.987812,180.132187 23.428661,180.023041 9.869511,179.913895 
	C5.298028,179.856522 4.004261,176.567734 2.974932,172.973984 
	C2.637161,171.794708 2.141432,170.660675 1.358968,169.752975 
	C1.000000,169.555557 1.000000,169.111099 1.000001,168.333328 
	C1.470628,167.509323 2.256671,167.079208 2.364311,166.518814 
	C3.849691,158.785507 6.597738,155.846497 15.436840,155.983063 
	C16.363253,155.997375 17.296577,155.564240 18.955673,155.522217 
	C33.809509,155.799820 47.934364,155.893936 62.059223,155.988037 
	C63.607357,156.411514 65.155495,156.834991 66.393578,157.616928 
	C52.942524,158.122528 39.692032,154.964096 25.876245,159.026031 
	C29.747448,161.515137 36.788708,160.466217 34.572594,167.001923 
	C33.269817,170.844025 29.605339,173.885330 26.457998,177.999359 
	C32.165684,177.999359 37.860569,178.009766 43.555405,177.996689 
	C50.491879,177.980774 51.906944,175.882065 48.257164,170.034744 
	C46.105022,166.586807 47.907093,164.673508 50.278297,163.668961 
	C54.095020,162.052032 58.278748,161.301422 61.404091,160.435196 
	C63.219582,162.386749 64.190239,163.872879 65.562637,164.644226 
	C65.992188,164.885651 68.230995,163.295303 68.350739,162.375412 
	C68.530273,160.996216 67.570251,159.468704 67.094841,158.004257 
M18.493256,158.030365 
	C17.837540,158.246689 17.181824,158.463013 16.526110,158.679337 
	C16.607294,159.074615 16.688478,159.469894 16.769663,159.865158 
	C17.963305,159.663101 19.156946,159.461029 20.350592,159.258957 
	C19.960241,158.860504 19.569889,158.462067 18.493256,158.030365 
z"/>
<path fill="#FA640E" opacity="1.000000" stroke="none" 
	d="
M69.997673,244.288422 
	C68.426903,236.981201 67.201912,229.826981 65.319962,222.849945 
	C61.803429,209.812973 57.787647,196.910416 54.296631,183.867081 
	C53.787487,181.964783 54.305832,178.645859 55.615440,177.652664 
	C57.859341,175.950882 60.657032,173.805664 64.196609,176.000183 
	C67.087341,177.792450 69.366409,177.467194 68.784210,172.674728 
	C67.567238,172.894302 66.499413,173.086960 65.270164,173.308746 
	C65.157379,167.509232 68.809593,165.866974 73.620049,164.954193 
	C74.009338,164.926468 74.054718,164.954178 74.036758,165.372253 
	C74.688629,167.172592 75.358452,168.554871 76.028267,169.937149 
	C76.028267,169.937149 76.040047,169.964508 76.028511,170.419998 
	C76.066620,173.202805 75.620300,175.674759 76.249695,177.833008 
	C79.374550,188.548401 82.730927,199.197922 86.162079,209.820160 
	C86.559456,211.050354 87.926453,211.967377 88.843910,213.029587 
	C88.843910,213.029587 88.970108,213.348679 88.949348,213.919968 
	C89.422455,215.014420 89.916313,215.537582 90.410172,216.060760 
	C90.410172,216.060760 90.545998,216.016373 90.959221,216.340393 
	C93.338509,216.805771 95.303322,217.047089 97.270851,217.071808 
	C107.848579,217.204620 118.426987,217.283539 129.107056,217.677231 
	C130.482773,217.677460 131.756607,217.381531 133.028595,217.055725 
	C133.026733,217.025833 133.087418,217.025406 133.450119,216.918060 
	C134.118317,213.179337 135.442062,209.245270 134.475128,205.992081 
	C133.227859,201.795776 130.312515,198.029816 127.747330,194.334091 
	C127.056915,193.339401 125.031425,193.271378 123.618774,192.777985 
	C123.618774,192.778000 123.299294,192.663818 123.499512,192.199005 
	C124.018677,190.763153 124.337624,189.792130 125.001205,187.771835 
	C123.300987,188.807968 122.474533,189.311630 121.648071,189.815277 
	C121.648071,189.815277 121.348610,189.711105 121.486008,189.249954 
	C121.067848,188.208618 120.512283,187.628418 119.956718,187.048233 
	C119.956718,187.048233 119.999458,187.005493 119.983612,186.630905 
	C119.113632,181.948898 117.519661,177.629150 117.591301,173.337173 
	C117.682358,167.882187 119.123535,162.449722 119.993500,156.607635 
	C119.987740,155.143250 119.971092,154.078766 119.954453,153.014282 
	C119.954453,153.014282 119.958466,152.959259 120.348694,152.890823 
	C121.163528,151.217453 121.588142,149.612518 122.244003,147.827072 
	C122.649506,147.098480 122.823761,146.550415 122.999863,145.534241 
	C123.001450,139.377640 123.001183,133.689133 123.338974,127.936462 
	C124.117920,126.914780 124.558807,125.957237 125.333694,124.929245 
	C126.047134,123.868340 126.426582,122.877892 126.806023,121.887451 
	C126.366669,121.791054 125.927315,121.694664 125.487953,121.598274 
	C125.325409,122.732285 125.162857,123.866295 124.629471,125.000160 
	C123.518089,124.994965 122.777550,124.989914 122.029579,124.558189 
	C122.024017,122.425476 122.025894,120.719429 122.421295,119.008209 
	C125.964584,117.744385 129.078293,116.382263 132.278183,115.267464 
	C134.083954,114.638367 136.031540,114.416405 137.939270,114.472397 
	C137.989609,118.931511 138.015930,122.929283 138.028763,127.400002 
	C137.650497,136.745224 139.374161,145.825928 135.212387,154.367203 
	C133.807251,154.367203 132.238663,154.367203 131.154953,154.367203 
	C131.448212,158.863342 132.077057,163.116653 131.904388,167.337143 
	C131.723328,171.763123 130.773483,176.157623 130.168365,180.503296 
	C133.226746,182.236816 135.641998,183.605804 138.326965,185.059418 
	C139.038483,185.484558 139.480270,185.825058 140.014618,186.370483 
	C140.288696,186.831802 140.531418,186.999527 140.894135,187.271637 
	C140.952850,187.464722 141.011032,187.864136 141.105255,188.115265 
	C141.485229,188.567947 141.770996,188.769501 142.026184,188.975800 
	C141.995621,188.980576 142.050690,188.949966 142.036652,189.326233 
	C143.348434,190.786560 144.674271,191.870605 146.016113,192.961243 
	C146.032135,192.967834 146.044891,193.000031 146.013672,193.371765 
	C146.930664,195.156723 147.878860,196.569946 148.976562,198.299530 
	C149.627060,200.615509 150.379791,202.590988 150.574417,204.619995 
	C150.933273,208.360992 150.964432,212.133408 151.000046,216.172028 
	C151.454208,216.656281 152.040222,217.039825 152.626740,217.040588 
	C181.552795,217.078598 210.478912,217.098541 239.404861,217.039352 
	C240.584351,217.036942 241.762238,216.255157 242.948517,215.450409 
	C240.045929,204.702423 237.135681,194.340515 234.449066,183.751877 
	C234.453720,181.348755 234.234756,179.172394 234.379761,177.008606 
	C236.798355,178.762482 238.672531,180.823318 240.975906,182.124191 
	C242.339554,182.894348 244.381149,182.464142 246.117889,182.573700 
	C246.191010,181.054108 246.213470,179.529938 246.349655,178.016022 
	C246.531967,175.989410 246.802414,173.970734 247.293121,172.204727 
	C249.643036,178.001251 251.734848,183.541687 253.826645,189.082123 
	C253.826645,189.082123 253.960892,189.465942 253.973694,190.095184 
	C254.590500,192.837662 255.194489,194.950897 255.798492,197.064117 
	C255.798492,197.064117 255.950073,197.466171 255.979355,198.029861 
	C256.371979,199.388748 256.735321,200.183960 257.098663,200.979156 
	C257.098663,200.979156 257.026245,200.987549 257.023804,201.323120 
	C257.623688,202.778168 258.226013,203.897629 258.828369,205.017090 
	C258.877136,205.430939 258.925903,205.844803 258.752441,206.804779 
	C259.047516,208.218719 259.564758,209.086533 260.082001,209.954361 
	C260.082001,209.954361 260.016876,210.000717 260.006897,210.379456 
	C260.688660,212.490555 261.380402,214.222916 262.072113,215.955261 
	C262.072113,215.955261 262.002686,215.992416 262.031433,216.247650 
	C262.696655,216.704330 263.333130,216.905762 264.439758,217.088348 
	C308.963165,217.043915 353.016510,217.018341 397.069824,216.992767 
	C397.069824,216.992783 397.031860,217.020996 397.090271,217.359100 
	C398.454895,218.120804 399.761108,218.544403 401.067352,218.968018 
	C401.067352,218.968018 401.005554,218.993576 401.048828,219.292847 
	C401.740875,220.050598 402.389648,220.509109 403.038391,220.967606 
	C403.038391,220.967606 403.004852,221.003006 403.107178,221.212341 
	C403.403961,221.713013 403.670776,221.902542 404.009949,221.990250 
	C404.009949,221.990250 404.000000,222.000000 404.076843,222.214935 
	C404.308319,222.707855 404.524445,222.924545 404.802094,223.079910 
	C408.590546,228.290665 406.036163,233.306580 404.275208,238.306320 
	C399.751617,251.149582 395.268036,264.008301 390.584625,276.793549 
	C383.932190,294.954071 377.184357,313.080414 370.337860,331.168640 
	C367.135498,339.629150 364.554138,348.523895 360.014587,356.234741 
	C352.242462,369.436523 339.697021,375.685516 324.456573,377.037201 
	C313.869781,377.976135 303.350342,379.654999 292.786224,380.877258 
	C288.207703,381.407013 283.585968,381.551025 278.995178,381.989014 
	C265.600830,383.266876 252.217026,384.657227 238.819473,385.899933 
	C230.304214,386.689728 221.766724,387.237610 213.248352,387.996429 
	C199.014923,389.264282 184.793823,390.672180 170.557770,391.908661 
	C161.371994,392.706482 152.166214,393.271454 142.974136,394.000519 
	C135.107422,394.624390 127.198174,394.998627 119.405373,396.146271 
	C115.532745,396.716583 111.768112,398.890076 111.070511,403.424774 
	C110.326660,408.260162 111.194504,412.683441 116.988449,415.366882 
	C118.495491,415.816101 119.312851,416.037170 120.130219,416.037170 
	C152.452881,416.036163 184.775528,416.015137 217.098190,415.996674 
	C224.466721,415.694183 231.834839,415.169769 239.203888,415.156555 
	C245.578934,415.145142 251.953171,415.767700 258.331970,415.988831 
	C259.921295,416.043945 261.526794,415.631439 263.842651,415.590271 
	C266.206268,415.839478 267.851959,416.010986 269.497955,416.013306 
	C292.042145,416.045319 314.586334,416.053925 337.130554,416.068298 
	C343.860107,417.358765 347.532166,421.952087 347.008820,428.424927 
	C346.613953,433.309052 341.967072,436.859680 335.669220,436.984589 
	C331.892700,437.059540 328.113464,436.998413 323.835480,436.998413 
	C326.473267,441.129486 328.783905,444.714569 331.060974,448.320770 
	C337.572479,458.632935 336.565125,469.426025 330.199036,478.694122 
	C325.887695,484.970734 328.072510,490.466766 328.175476,496.413879 
	C328.383026,508.405182 335.201385,517.648376 340.652039,527.600403 
	C343.206116,532.263733 344.331696,538.050781 344.789795,543.440247 
	C345.464508,551.379089 344.959412,559.417786 344.964844,567.413940 
	C344.970215,575.265015 339.927155,580.619385 332.063904,580.939148 
	C328.738098,581.074402 325.401672,580.948120 321.317413,580.553650 
	C307.892029,580.094116 295.219330,580.010742 282.546478,579.985107 
	C281.984772,579.984009 281.422028,580.510986 280.859741,580.791992 
	C270.663025,580.989136 260.581848,581.414062 250.475266,583.676514 
	C244.278824,585.063660 238.263596,581.665833 233.091766,577.569336 
	C223.415924,569.905212 213.312698,562.758911 203.913513,554.777527 
	C199.948425,551.410461 196.414093,546.958008 196.971268,540.833557 
	C197.211716,538.190613 197.256775,535.473572 196.912781,532.852966 
	C196.671158,531.012207 196.076187,528.844238 194.858078,527.567383 
	C188.107925,520.491760 181.068512,513.693237 174.232162,506.698212 
	C170.849930,503.237549 167.880524,499.353241 164.335052,496.082611 
	C162.963882,494.817719 160.369781,493.902008 158.581604,494.221161 
	C145.074112,496.631989 134.516602,490.992615 126.877266,480.966125 
	C116.197212,466.948761 117.985390,451.880341 129.091644,438.303925 
	C129.264191,438.093048 129.266006,437.742462 129.479584,436.994598 
	C126.448036,436.994598 123.521973,436.848175 120.614792,437.020447 
	C109.293564,437.691223 100.237877,432.771179 93.424934,424.481323 
	C86.169182,415.652618 85.403847,405.408508 89.712051,394.627808 
	C92.657181,387.258026 96.952682,381.706116 104.487068,378.544861 
	C105.872223,377.963684 107.074715,374.173065 106.584991,372.337952 
	C102.786797,358.105042 98.509987,344.000641 94.463547,329.832977 
	C88.949081,310.525391 83.507401,291.196991 78.237221,271.234863 
	C77.766174,266.568634 77.572578,262.384705 76.296059,258.562469 
	C74.731018,253.876343 72.260094,249.492752 70.180809,244.978378 
	C70.180809,244.978378 70.046974,244.521362 69.997673,244.288422 
M332.999939,352.997772 
	C332.999939,352.997772 332.940826,352.980896 333.662933,352.957458 
	C334.450317,352.272369 335.237701,351.587280 336.234863,350.343079 
	C337.130035,349.576569 338.025177,348.810028 339.641632,347.888458 
	C340.108643,346.851532 340.575653,345.814606 341.059479,344.455383 
	C341.059479,344.455383 341.195099,344.162445 341.574402,343.833557 
	C341.807343,343.579712 341.949402,343.282440 342.003937,343.007629 
	C342.003937,343.007629 341.938019,343.007050 342.592896,342.708008 
	C343.718597,339.111664 344.844299,335.515320 345.989532,331.994171 
	C345.989532,331.994171 345.913696,332.011230 346.492706,331.572449 
	C346.990234,329.696381 347.487793,327.820312 347.998322,326.002228 
	C347.998322,326.002228 347.939575,325.993195 348.683533,325.858582 
	C349.111664,324.214203 349.539795,322.569794 349.986115,320.992676 
	C349.986115,320.992676 349.916504,320.995453 350.574036,320.673889 
	C351.368378,317.758575 352.162750,314.843231 352.991852,311.987091 
	C352.991852,311.987091 352.923309,311.983490 353.255737,311.856110 
	C353.333893,311.768677 353.494843,311.650146 353.475739,311.599213 
	C353.398132,311.392395 353.265228,311.206299 352.992493,310.526764 
	C352.952454,310.360992 352.912445,310.195221 352.445770,309.308960 
	C351.966583,309.194489 351.487518,308.980316 351.008240,308.979828 
	C327.804596,308.956268 304.600952,308.937561 281.397491,308.999573 
	C280.575409,309.001770 279.755554,309.824799 278.966705,311.103302 
	C277.819397,317.099792 276.601318,323.084076 275.560791,329.099030 
	C275.164246,331.391144 275.165009,333.752991 275.002350,336.084290 
	C274.623779,341.510040 274.308044,346.940887 273.860291,352.360870 
	C273.654816,354.848083 273.198547,357.314575 272.836395,359.932129 
	C288.792664,358.288239 303.878387,356.734039 319.597321,355.658325 
	C323.066040,355.174377 326.534790,354.690430 330.432159,354.067963 
	C330.432159,354.067963 330.878265,354.005127 331.514526,353.984100 
	C332.007507,353.634949 332.500488,353.285797 332.999939,352.997772 
M150.578262,240.123352 
	C133.434814,240.038910 116.291374,239.934677 99.147865,239.919785 
	C98.133514,239.918900 97.118538,240.636017 96.022827,241.835037 
	C96.010986,242.332764 95.881508,242.861786 96.004448,243.323639 
	C99.407166,256.107422 102.789635,268.897125 106.328514,281.643341 
	C106.694504,282.961578 108.016968,284.014252 109.543228,285.755554 
	C124.042427,285.811371 138.541626,285.867157 153.942047,285.996765 
	C157.942596,285.724243 161.943161,285.451752 165.847305,285.185822 
	C163.739716,269.953644 161.756989,255.623947 159.703690,240.784149 
	C156.759659,240.784149 153.954224,240.784149 150.578262,240.123352 
M193.974548,311.051270 
	C196.348404,329.682129 198.722275,348.312988 201.111282,367.062805 
	C202.721695,366.603760 203.636490,366.190887 204.583145,366.096008 
	C218.356735,364.715698 232.122787,363.228882 245.919785,362.135162 
	C249.352356,361.863098 250.024170,360.538635 250.100052,357.525696 
	C250.224335,352.591583 250.640579,347.653229 251.179077,342.743561 
	C252.374054,331.848511 253.721207,320.970184 254.540100,309.360138 
	C234.630325,309.235870 214.720551,309.106781 194.810577,309.036377 
	C194.533340,309.035400 194.253494,309.772308 193.974548,311.051270 
M168.678360,309.471924 
	C168.212677,309.322083 167.747345,309.042480 167.281250,309.041199 
	C150.096634,308.994354 132.911911,308.961517 115.727386,308.999695 
	C115.146782,309.000977 114.567856,309.753510 113.962524,310.977600 
	C113.958244,311.143982 113.913918,311.321136 113.955376,311.475220 
	C119.331322,331.455322 124.655251,351.450073 130.249985,371.368805 
	C130.563705,372.485748 133.208145,373.791382 134.605637,373.627380 
	C145.969116,372.293945 157.283066,370.544189 168.637634,369.125458 
	C171.681229,368.745178 174.812668,369.067963 178.025009,369.067963 
	C176.279892,357.431396 174.666611,346.608215 173.030991,335.788422 
	C171.744034,327.275116 170.429474,318.765991 168.678360,309.471924 
M243.965714,286.000183 
	C248.576157,286.000183 253.186600,286.000183 258.032288,286.000183 
	C259.527863,270.718109 260.969360,255.988586 262.420288,241.162766 
	C235.625977,241.162766 210.033585,241.162766 184.069275,241.162766 
	C184.911789,248.316666 185.630524,255.227829 186.561813,262.110229 
	C187.586090,269.679871 188.805939,277.223022 190.412811,285.524963 
	C191.370651,285.732178 192.328873,286.121643 193.286255,286.119568 
	C209.870514,286.083649 226.454681,285.999542 243.965714,286.000183 
M299.871277,240.945969 
	C295.620636,240.945969 291.369995,240.945969 287.344055,240.945969 
	C285.446594,256.312103 283.644348,270.907227 281.794647,285.886444 
	C284.530243,285.886444 286.670044,285.945129 288.805603,285.875427 
	C295.217468,285.666229 301.627716,285.406891 308.646637,285.740997 
	C325.160278,285.844269 341.673950,285.947571 358.959229,286.012177 
	C362.710449,285.836548 364.338226,283.759399 365.517609,280.212402 
	C368.883698,270.088959 372.805664,260.151459 376.408661,250.104858 
	C377.264130,247.719437 377.727386,245.193375 378.445190,242.448700 
	C375.967255,241.805084 374.118347,241.324844 371.634827,240.222488 
	C348.912537,240.113388 326.190277,239.993317 303.467865,239.935760 
	C302.569183,239.933472 301.668976,240.526810 299.871277,240.945969 
M179.020691,437.880890 
	C179.341751,438.432770 179.567886,439.075867 179.997726,439.523224 
	C191.077438,451.055359 193.203293,468.950439 181.439484,482.217407 
	C180.431610,483.354034 180.206711,486.760834 181.113678,487.773438 
	C189.332611,496.949615 197.545944,506.183380 206.460281,514.665283 
	C212.247452,520.171753 216.855011,526.060486 215.819321,534.075134 
	C214.966232,540.676941 218.815994,543.810791 222.844223,546.917969 
	C230.578506,552.883789 238.604401,558.480286 246.653854,564.020020 
	C247.946060,564.909363 250.039932,565.141479 251.671982,564.939636 
	C258.114929,564.143005 264.504791,562.361267 270.944885,562.205566 
	C287.600616,561.802917 304.272522,562.076172 320.937988,562.057983 
	C322.538818,562.056274 324.139557,561.904602 326.016602,561.808289 
	C326.016602,556.580139 326.156128,551.764954 325.969452,546.962463 
	C325.836670,543.545837 326.021790,539.818909 324.721680,536.811157 
	C322.423828,531.495117 318.854462,526.743591 316.286163,521.525146 
	C314.159424,517.203735 312.249695,512.664062 311.090546,508.010223 
	C309.996155,503.616486 310.005981,498.947754 309.460999,493.739441 
	C302.061707,495.313019 294.988342,494.775360 287.554260,492.271576 
	C276.633362,488.593445 266.672974,475.444000 265.922089,464.361664 
	C265.193024,453.601959 268.867310,444.811798 275.386627,436.489746 
	C274.749695,436.330048 274.112885,436.031158 273.475800,436.030548 
	C243.179703,436.001556 212.883560,435.984833 182.587555,436.042694 
	C181.397751,436.044952 180.209351,436.787781 179.020691,437.880890 
M141.427567,472.971649 
	C144.166092,474.721008 146.795074,476.683472 149.672684,478.162170 
	C152.797806,479.768066 162.583664,477.908722 164.940460,475.592865 
	C175.531281,465.186035 173.138641,451.759399 159.641266,445.855774 
	C153.372803,443.113953 144.898331,445.787659 140.919037,451.221558 
	C135.649246,458.417725 136.593124,465.353943 141.427567,472.971649 
M316.710602,456.199463 
	C313.273102,451.058228 309.074402,446.864777 302.817963,445.370911 
	C295.576080,443.641846 290.440979,447.362823 286.170013,452.409302 
	C282.258667,457.030792 282.928223,462.790161 284.575653,467.862488 
	C286.539886,473.910095 291.297241,477.218231 297.844238,478.512756 
	C303.990845,479.728058 309.024567,477.589020 312.852783,473.800751 
	C317.305298,469.394745 320.004456,463.639771 316.710602,456.199463 
M124.477180,178.173157 
	C124.274834,179.156906 124.072479,180.140640 123.870140,181.124390 
	C124.585609,181.153549 125.301071,181.182709 126.016541,181.211853 
	C125.730522,180.222610 125.444504,179.233368 124.477180,178.173157 
M121.313957,171.917969 
	C121.495903,172.427902 121.677841,172.937820 121.859779,173.447754 
	C122.123756,173.329483 122.387733,173.211212 122.651711,173.092941 
	C122.344040,172.567963 122.036369,172.042984 121.313957,171.917969 
z"/>
<path fill="#F86C17" opacity="1.000000" stroke="none" 
	d="
M117.485405,87.700485 
	C111.209816,81.175903 105.044899,74.539413 98.610420,68.175476 
	C95.543999,65.142677 92.084435,62.464165 88.589630,59.917976 
	C83.526337,56.229038 80.757515,51.551498 81.003845,45.173435 
	C81.131905,41.857838 81.282028,38.508522 80.963348,35.218891 
	C80.555664,31.010429 82.119324,27.880087 86.026337,25.184853 
	C102.950645,25.054586 119.082268,25.043537 135.213898,25.032490 
	C138.556778,26.707685 141.899658,28.382879 145.960800,30.366322 
	C158.731033,30.811666 170.783020,30.948769 182.834991,31.085869 
	C189.673050,34.166630 191.257446,37.626572 189.094849,45.604439 
	C186.503372,55.164467 183.926132,64.737602 180.940552,74.177864 
	C179.308517,79.338295 179.924301,83.113945 185.062042,85.603653 
	C185.527206,85.829071 185.694565,86.668983 185.668488,87.561295 
	C181.891769,87.598770 178.446808,87.298470 174.992249,86.648079 
	C174.413895,85.553940 173.845123,84.809883 173.276337,84.065826 
	C172.896683,84.495544 172.517029,84.925262 172.137360,85.354980 
	C173.090973,85.903908 174.044571,86.452835 174.996796,87.384422 
	C173.889130,90.300056 172.782837,92.833038 171.503922,95.761238 
	C176.079910,94.490486 180.016083,94.063454 178.619034,100.662941 
	C180.527618,100.184402 181.984085,99.819229 185.213943,99.009407 
	C180.794952,102.982986 182.560165,104.786743 185.355118,106.174683 
	C187.552017,107.265640 190.390915,107.643799 191.976624,109.277924 
	C196.939972,114.392807 202.069672,119.086327 208.866119,121.664291 
	C209.690079,121.976830 210.368622,122.982384 210.855743,123.817680 
	C212.608047,126.822357 214.626068,128.510117 217.532623,125.435585 
	C219.170425,129.485184 220.917236,133.071228 222.086258,136.836655 
	C225.194366,146.847931 228.053375,156.936554 231.011353,167.406723 
	C231.040527,169.191040 231.069839,170.563034 231.057144,171.966751 
	C231.015152,171.998459 230.933212,172.064468 230.608902,171.862885 
	C228.086929,163.564987 226.319016,155.317764 223.546753,147.423218 
	C221.562531,141.772766 219.528748,135.024918 215.259933,131.500778 
	C202.496536,120.963890 188.615784,111.781685 175.185852,102.050453 
	C168.439346,97.161980 160.807404,92.546921 160.691269,83.060684 
	C160.622131,77.412460 162.403870,71.726463 163.489410,66.083580 
	C164.526642,60.691639 165.739838,55.333553 166.599457,49.661549 
	C157.504623,49.241997 148.686035,49.121487 139.494232,49.003361 
	C138.213669,48.688385 137.153793,48.573803 136.421844,48.023239 
	C125.524559,39.826447 113.122169,44.027321 100.553490,42.845627 
	C107.488892,50.112484 113.659088,56.577560 119.432312,63.031555 
	C117.007904,63.501320 114.980469,63.982162 112.953026,64.463005 
	C112.942215,65.137039 112.931404,65.811073 112.920593,66.485107 
	C115.612709,67.324425 118.304832,68.163742 120.997513,69.444901 
	C119.827179,75.824661 118.656288,81.762573 117.485405,87.700485 
z"/>
<path fill="#FC670C" opacity="1.000000" stroke="none" 
	d="
M175.001831,86.998169 
	C178.446808,87.298470 181.891769,87.598770 185.698212,87.924538 
	C186.059692,87.950012 186.019913,87.974411 186.059067,88.320114 
	C189.565536,91.790985 193.032852,94.916161 196.853943,98.360184 
	C193.701584,99.751579 188.799698,97.946587 188.246124,103.226891 
	C191.711060,103.652512 194.957947,104.051353 198.485367,104.484650 
	C198.715073,100.542229 201.224060,100.995750 204.220428,102.185059 
	C204.644287,102.904556 204.830139,103.450752 204.787766,104.197311 
	C205.373428,105.932182 206.187332,107.466705 206.627136,108.993790 
	C203.236633,108.257088 199.915466,105.321007 197.710754,109.879997 
	C199.977356,111.547279 202.113693,113.118736 204.798523,115.093651 
	C205.600693,112.871567 206.299744,110.935173 207.339325,108.992020 
	C208.783676,108.324799 209.887497,107.664330 211.264648,107.003067 
	C211.720016,106.993576 211.902054,106.984871 212.084076,106.976158 
	C212.084076,106.976158 212.502518,107.036606 212.847229,107.298401 
	C213.424988,107.801727 213.708542,107.938461 214.042603,107.970406 
	C214.042603,107.970406 213.995132,107.990021 214.057434,108.321564 
	C215.094894,109.083511 216.070038,109.513924 217.045181,109.944336 
	C217.045181,109.944336 216.998276,109.990807 216.995636,110.237946 
	C216.993561,110.663109 216.994141,110.841141 216.837616,111.316544 
	C213.619186,116.071053 213.767242,117.833122 218.011520,120.256714 
	C220.474075,121.662910 223.491791,123.507812 225.356110,118.944000 
	C226.463562,119.311241 227.237747,119.654366 227.963409,120.358795 
	C228.218643,123.041862 228.522385,125.363617 228.826126,127.685364 
	C229.353470,127.620522 229.880814,127.555679 230.408157,127.490837 
	C230.941971,126.316963 231.475800,125.143089 232.348877,123.983917 
	C233.139694,123.980225 233.591248,123.961823 234.042816,123.943420 
	C234.042816,123.943420 234.004379,123.965050 234.080566,124.199760 
	C234.309479,124.732086 234.533127,124.960205 234.827652,125.118835 
	C234.827652,125.118835 234.951111,125.493477 234.966736,126.101501 
	C236.862015,134.431015 238.614731,142.186264 240.657730,149.864288 
	C242.627563,157.267227 244.897125,164.590408 247.035019,171.948639 
	C246.802414,173.970734 246.531967,175.989410 246.349655,178.016022 
	C246.213470,179.529938 246.191010,181.054108 246.117889,182.573700 
	C244.381149,182.464142 242.339554,182.894348 240.975906,182.124191 
	C238.672531,180.823318 236.798355,178.762482 234.375916,176.634247 
	C234.009201,175.498322 234.010254,174.749359 234.318817,173.865814 
	C235.993225,173.572037 237.360092,173.412811 238.764633,173.249191 
	C237.769836,169.558853 233.665710,166.364182 231.011459,166.994415 
	C228.053375,156.936554 225.194366,146.847931 222.086258,136.836655 
	C220.917236,133.071228 219.170425,129.485184 217.532623,125.435585 
	C214.626068,128.510117 212.608047,126.822357 210.855743,123.817680 
	C210.368622,122.982384 209.690079,121.976830 208.866119,121.664291 
	C202.069672,119.086327 196.939972,114.392807 191.976624,109.277924 
	C190.390915,107.643799 187.552017,107.265640 185.355118,106.174683 
	C182.560165,104.786743 180.794952,102.982986 185.213943,99.009407 
	C181.984085,99.819229 180.527618,100.184402 178.619034,100.662941 
	C180.016083,94.063454 176.079910,94.490486 171.503922,95.761238 
	C172.782837,92.833038 173.889130,90.300056 174.997711,87.383537 
	C175.000000,87.000000 175.001831,86.998169 175.001831,86.998169 
M183.712204,90.929863 
	C182.592163,91.288521 181.472137,91.647179 180.352097,92.005836 
	C181.093491,92.946365 181.834885,93.886887 182.576279,94.827415 
	C183.145981,93.660355 183.715683,92.493286 183.712204,90.929863 
z"/>
<path fill="#F86812" opacity="1.000000" stroke="none" 
	d="
M117.506332,87.699890 
	C118.656288,81.762573 119.827179,75.824661 120.999039,69.443375 
	C121.000000,69.000000 121.003052,68.996948 121.409630,68.997818 
	C122.899315,68.982208 123.982430,68.965729 125.307899,69.024734 
	C125.720039,69.381859 125.889816,69.663498 126.049881,70.315987 
	C127.030563,71.439949 128.020981,72.193062 129.019073,72.957275 
	C129.026764,72.968376 129.048477,72.984444 129.152786,73.198410 
	C129.451691,73.679825 129.708832,73.855988 130.276093,74.023834 
	C130.711960,74.390640 130.900269,74.674492 131.063049,75.324127 
	C132.376724,77.448814 133.715927,79.207703 135.288666,81.025223 
	C135.829620,81.260033 135.988632,81.525192 135.990891,82.314362 
	C136.626785,93.169945 137.271011,103.590492 137.915253,114.011047 
	C136.031540,114.416405 134.083954,114.638367 132.278183,115.267464 
	C129.078293,116.382263 125.964584,117.744385 122.412720,118.576645 
	C122.577515,115.168724 123.665718,112.174042 123.590912,109.208694 
	C123.474388,104.588943 122.672928,99.972015 121.924965,95.392563 
	C121.732048,94.211441 120.655655,93.174614 119.985100,92.071510 
	C119.985100,92.071510 119.938484,92.056908 119.929871,91.737892 
	C119.601646,90.961319 119.282043,90.503761 118.962433,90.046196 
	C118.692184,89.853119 118.421928,89.660042 118.364105,89.017593 
	C118.237419,88.287033 117.898300,88.005852 117.559181,87.724670 
	C117.559181,87.724670 117.527267,87.699287 117.506332,87.699890 
M123.095955,80.663902 
	C123.324013,81.222687 123.552071,81.781464 123.780121,82.340240 
	C124.151466,81.925583 124.522804,81.510918 124.894150,81.096260 
	C124.347168,80.745926 123.800186,80.395584 123.095955,80.663902 
z"/>
<path fill="#DB905A" opacity="1.000000" stroke="none" 
	d="
M396.851959,216.610962 
	C353.016510,217.018341 308.963165,217.043915 264.431488,216.855072 
	C263.953125,216.640640 263.903839,216.177917 263.903839,216.177917 
	C308.147247,216.194992 352.390686,216.212082 396.851959,216.610962 
z"/>
<path fill="#EC7127" opacity="1.000000" stroke="none" 
	d="
M247.293121,172.204727 
	C244.897125,164.590408 242.627563,157.267227 240.657730,149.864288 
	C238.614731,142.186264 236.862015,134.431015 234.991089,126.297226 
	C236.999176,130.850418 239.418839,135.692947 240.914627,140.805786 
	C244.578156,153.328156 247.806305,165.977707 251.230087,178.570526 
	C252.111938,181.814041 253.069321,185.037033 253.909332,188.675781 
	C251.734848,183.541687 249.643036,178.001251 247.293121,172.204727 
z"/>
<path fill="#F86C17" opacity="1.000000" stroke="none" 
	d="
M203.982407,102.011749 
	C201.224060,100.995750 198.715073,100.542229 198.485367,104.484650 
	C194.957947,104.051353 191.711060,103.652512 188.246124,103.226891 
	C188.799698,97.946587 193.701584,99.751579 196.853943,98.360184 
	C193.032852,94.916161 189.565536,91.790985 186.069458,88.300217 
	C191.934662,92.056709 197.828629,96.178802 203.860474,100.879440 
	C203.993042,101.642570 203.987717,101.827156 203.982407,102.011749 
z"/>
<path fill="#FFA178" opacity="1.000000" stroke="none" 
	d="
M216.890228,415.604675 
	C184.775528,416.015137 152.452881,416.036163 120.130219,416.037170 
	C119.312851,416.037170 118.495491,415.816101 117.346901,415.446838 
	C150.237869,415.201294 183.460052,415.207001 216.890228,415.604675 
z"/>
<path fill="#F86C17" opacity="1.000000" stroke="none" 
	d="
M120.004868,92.534035 
	C120.655655,93.174614 121.732048,94.211441 121.924965,95.392563 
	C122.672928,99.972015 123.474388,104.588943 123.590912,109.208694 
	C123.665718,112.174042 122.577515,115.168724 122.019203,118.581825 
	C122.025894,120.719429 122.024017,122.425476 122.021454,124.895264 
	C122.347481,126.439545 122.674194,127.220078 123.000916,128.000610 
	C123.001183,133.689133 123.001450,139.377640 122.697922,145.534332 
	C121.991478,146.003265 121.588829,146.004013 121.186172,146.004776 
	C121.131393,138.400299 121.174561,130.793533 120.997665,123.191887 
	C120.763397,113.124680 120.357025,103.061478 120.004868,92.534035 
z"/>
<path fill="#F86812" opacity="1.000000" stroke="none" 
	d="
M88.918488,212.633514 
	C87.926453,211.967377 86.559456,211.050354 86.162079,209.820160 
	C82.730927,199.197922 79.374550,188.548401 76.249695,177.833008 
	C75.620300,175.674759 76.066620,173.202805 76.040817,170.428406 
	C78.697578,178.200195 81.398842,186.398010 83.940239,194.645111 
	C85.736649,200.474670 87.316521,206.370956 88.918488,212.633514 
z"/>
<path fill="#F86C17" opacity="1.000000" stroke="none" 
	d="
M225.022827,118.919891 
	C223.491791,123.507812 220.474075,121.662910 218.011520,120.256714 
	C213.767242,117.833122 213.619186,116.071053 217.102203,111.307999 
	C217.699707,110.988861 217.875519,110.975632 218.051315,110.962402 
	C218.051315,110.962402 217.995850,110.991707 218.124603,111.199097 
	C218.536270,111.597359 218.819214,111.788231 219.102158,111.979095 
	C219.102158,111.979095 219.550858,112.057991 219.908295,112.321503 
	C220.500397,112.802795 220.776367,112.932961 221.093643,112.975525 
	C221.093643,112.975525 221.513809,113.020142 221.853912,113.273331 
	C222.422073,113.767868 222.701141,113.906616 223.031189,113.942757 
	C223.031189,113.942757 223.013107,113.978310 223.123932,114.202805 
	C223.430908,114.713348 223.699249,114.889351 224.039780,114.955292 
	C224.039780,114.955292 223.999390,114.997658 224.122177,115.208374 
	C224.517410,115.603073 224.789856,115.787064 225.062302,115.971046 
	C225.062302,115.971046 224.998734,115.990425 225.007019,116.338806 
	C225.017807,117.431419 225.020309,118.175652 225.022827,118.919891 
z"/>
<path fill="#FF8F74" opacity="1.000000" stroke="none" 
	d="
M336.916962,415.672729 
	C314.586334,416.053925 292.042145,416.045319 269.497955,416.013306 
	C267.851959,416.010986 266.206268,415.839478 264.238037,415.467712 
	C288.178253,415.218262 312.440796,415.247681 336.916962,415.672729 
z"/>
<path fill="#F86812" opacity="1.000000" stroke="none" 
	d="
M119.982605,157.007553 
	C119.123535,162.449722 117.682358,167.882187 117.591301,173.337173 
	C117.519661,177.629150 119.113632,181.948898 119.958618,186.647034 
	C113.529510,180.689865 114.608604,173.057373 116.359451,165.384277 
	C116.956184,162.769073 118.010208,160.258209 119.232452,157.353577 
	C119.609612,157.007492 119.982597,157.007553 119.982605,157.007553 
z"/>
<path fill="#F86812" opacity="1.000000" stroke="none" 
	d="
M123.747963,193.059235 
	C125.031425,193.271378 127.056915,193.339401 127.747330,194.334091 
	C130.312515,198.029816 133.227859,201.795776 134.475128,205.992081 
	C135.442062,209.245270 134.118317,213.179337 133.418823,216.626373 
	C133.000671,216.248184 132.976501,216.054337 132.952347,215.860489 
	C134.896622,206.351242 128.351700,200.263016 123.747963,193.059235 
z"/>
<path fill="#DB905A" opacity="1.000000" stroke="none" 
	d="
M134.974915,24.648798 
	C119.082268,25.043537 102.950645,25.054586 86.338669,25.044935 
	C86.543465,24.684483 87.229179,24.047321 87.913658,24.048637 
	C103.521164,24.078644 119.128532,24.178396 134.974915,24.648798 
z"/>
<path fill="#F86812" opacity="1.000000" stroke="none" 
	d="
M70.100845,245.369415 
	C72.260094,249.492752 74.731018,253.876343 76.296059,258.562469 
	C77.572578,262.384705 77.766174,266.568634 78.199066,270.837097 
	C75.312431,262.641479 72.666649,254.200974 70.100845,245.369415 
z"/>
<path fill="#FFBB93" opacity="1.000000" stroke="none" 
	d="
M61.851967,155.599487 
	C47.934364,155.893936 33.809509,155.799820 19.356052,155.453354 
	C33.233208,155.204315 47.438957,155.207626 61.851967,155.599487 
z"/>
<path fill="#D88D5F" opacity="1.000000" stroke="none" 
	d="
M132.489594,215.915787 
	C132.976501,216.054337 133.000671,216.248184 133.056122,216.733704 
	C133.087418,217.025406 133.026733,217.025833 132.623032,217.050201 
	C131.147934,217.176727 130.076553,217.278900 129.005157,217.381073 
	C118.426987,217.283539 107.848579,217.204620 97.270851,217.071808 
	C95.303322,217.047089 93.338509,216.805771 91.012085,216.388458 
	C104.443428,216.065369 118.235146,216.018219 132.489594,215.915787 
z"/>
<path fill="#FFC5A3" opacity="1.000000" stroke="none" 
	d="
M10.061622,180.323807 
	C23.428661,180.023041 36.987812,180.132187 50.867363,180.541504 
	C37.543083,180.805695 23.898409,180.769714 10.061622,180.323807 
z"/>
<path fill="#FFF087" opacity="1.000000" stroke="none" 
	d="
M281.334229,580.890015 
	C281.422028,580.510986 281.984772,579.984009 282.546478,579.985107 
	C295.219330,580.010742 307.892029,580.094116 320.868286,580.482178 
	C308.050781,580.861206 294.929749,580.924622 281.334229,580.890015 
z"/>
<path fill="#F0B48B" opacity="1.000000" stroke="none" 
	d="
M182.740311,30.652805 
	C170.783020,30.948769 158.731033,30.811666 146.319855,30.458136 
	C158.188980,30.234385 170.417297,30.227064 182.740311,30.652805 
z"/>
<path fill="#F86C17" opacity="1.000000" stroke="none" 
	d="
M207.001221,109.001221 
	C206.187332,107.466705 205.373428,105.932182 205.195343,104.197571 
	C206.920364,103.992188 208.009567,103.986916 209.098785,103.981644 
	C209.680817,104.443756 210.262848,104.905869 210.922485,105.910820 
	C210.997162,106.637062 210.994232,106.820473 210.991318,107.003876 
	C209.887497,107.664330 208.783676,108.324799 207.339935,108.992630 
	C207.000000,109.000000 207.001221,109.001221 207.001221,109.001221 
z"/>
<path fill="#EC7127" opacity="1.000000" stroke="none" 
	d="
M225.356110,118.944000 
	C225.020309,118.175652 225.017807,117.431419 225.029205,116.314049 
	C227.035950,117.363594 229.028763,118.786263 231.005432,120.613770 
	C230.989273,121.018616 230.917709,121.110985 230.611618,121.046265 
	C229.540985,120.653526 228.776459,120.325508 228.011917,119.997490 
	C227.237747,119.654366 226.463562,119.311241 225.356110,118.944000 
z"/>
<path fill="#EC7127" opacity="1.000000" stroke="none" 
	d="
M255.867462,196.664017 
	C255.194489,194.950897 254.590500,192.837662 253.996399,190.297241 
	C254.649673,192.001328 255.293060,194.132629 255.867462,196.664017 
z"/>
<path fill="#F86C17" opacity="1.000000" stroke="none" 
	d="
M122.012756,148.007584 
	C121.588142,149.612518 121.163528,151.217453 120.375839,152.885956 
	C120.296318,151.524033 120.579872,150.098541 121.233185,148.336487 
	C121.602936,147.999908 122.012749,148.007584 122.012756,148.007584 
z"/>
<path fill="#F86812" opacity="1.000000" stroke="none" 
	d="
M76.009064,169.571533 
	C75.358452,168.554871 74.688629,167.172592 74.042709,165.398132 
	C74.707687,166.405960 75.348778,167.805939 76.009064,169.571533 
z"/>
<path fill="#F86812" opacity="1.000000" stroke="none" 
	d="
M121.760880,190.055420 
	C122.474533,189.311630 123.300987,188.807968 125.001205,187.771835 
	C124.337624,189.792130 124.018677,190.763153 123.452377,192.036057 
	C122.761238,191.657135 122.317459,190.976349 121.760880,190.055420 
z"/>
<path fill="#EC7127" opacity="1.000000" stroke="none" 
	d="
M208.948700,103.669189 
	C208.009567,103.986916 206.920364,103.992188 205.423569,103.997208 
	C204.830139,103.450752 204.644287,102.904556 204.220428,102.185059 
	C203.987717,101.827156 203.993042,101.642570 204.008804,101.181023 
	C205.612350,101.721619 207.205475,102.539177 208.948700,103.669189 
z"/>
<path fill="#EC7127" opacity="1.000000" stroke="none" 
	d="
M262.036774,215.578766 
	C261.380402,214.222916 260.688660,212.490555 260.024048,210.343353 
	C260.701263,211.686432 261.351349,213.444366 262.036774,215.578766 
z"/>
<path fill="#EC7127" opacity="1.000000" stroke="none" 
	d="
M400.928528,218.641907 
	C399.761108,218.544403 398.454895,218.120804 397.093414,217.335693 
	C398.288696,217.421417 399.539215,217.868607 400.928528,218.641907 
z"/>
<path fill="#EC7127" opacity="1.000000" stroke="none" 
	d="
M260.038879,209.608063 
	C259.564758,209.086533 259.047516,208.218719 258.761536,207.118515 
	C259.327118,207.678009 259.661438,208.469879 260.038879,209.608063 
z"/>
<path fill="#EC7127" opacity="1.000000" stroke="none" 
	d="
M258.891998,204.676514 
	C258.226013,203.897629 257.623688,202.778168 257.034790,201.288376 
	C257.684052,202.057343 258.319824,203.196625 258.891998,204.676514 
z"/>
<path fill="#EC7127" opacity="1.000000" stroke="none" 
	d="
M216.956665,109.623894 
	C216.070038,109.513924 215.094894,109.083511 214.077393,108.304131 
	C214.979401,108.404587 215.923767,108.854012 216.956665,109.623894 
z"/>
<path fill="#EC7127" opacity="1.000000" stroke="none" 
	d="
M234.045853,123.587326 
	C233.591248,123.961823 233.139694,123.980225 232.339783,123.669525 
	C231.953217,122.922325 231.915009,122.504227 231.927155,122.049057 
	C231.977539,122.011993 232.072433,121.930489 232.072433,121.930489 
	C232.731247,122.364067 233.390076,122.797646 234.045853,123.587326 
z"/>
<path fill="#F86C17" opacity="1.000000" stroke="none" 
	d="
M119.993492,156.607635 
	C119.982597,157.007553 119.609612,157.007492 119.423134,157.010284 
	C119.257103,155.790421 119.277550,154.567734 119.626221,153.179672 
	C119.971092,154.078766 119.987740,155.143250 119.993492,156.607635 
z"/>
<path fill="#F86812" opacity="1.000000" stroke="none" 
	d="
M122.244003,147.827072 
	C122.012749,148.007584 121.602936,147.999908 121.398010,147.996643 
	C121.143539,147.549927 121.094002,147.106491 121.115326,146.333923 
	C121.588829,146.004013 121.991478,146.003265 122.696068,146.002411 
	C122.823761,146.550415 122.649506,147.098480 122.244003,147.827072 
z"/>
<path fill="#F86812" opacity="1.000000" stroke="none" 
	d="
M119.986664,187.342163 
	C120.512283,187.628418 121.067848,188.208618 121.434006,189.100189 
	C120.835274,188.819763 120.425941,188.227936 119.986664,187.342163 
z"/>
<path fill="#EC7127" opacity="1.000000" stroke="none" 
	d="
M263.601501,216.100220 
	C263.903839,216.177917 263.953125,216.640640 263.961365,216.873917 
	C263.333130,216.905762 262.696655,216.704330 262.055176,216.216248 
	C262.466522,215.960571 262.882843,215.991547 263.601501,216.100220 
z"/>
<path fill="#EC7127" opacity="1.000000" stroke="none" 
	d="
M257.056396,200.627228 
	C256.735321,200.183960 256.371979,199.388748 256.013306,198.242020 
	C256.350006,198.685410 256.682068,199.480347 257.056396,200.627228 
z"/>
<path fill="#EC7127" opacity="1.000000" stroke="none" 
	d="
M402.951141,220.682053 
	C402.389648,220.509109 401.740875,220.050598 401.060638,219.261551 
	C401.640717,219.419495 402.252319,219.907990 402.951141,220.682053 
z"/>
<path fill="#D88D5F" opacity="1.000000" stroke="none" 
	d="
M90.271210,215.717316 
	C89.916313,215.537582 89.422455,215.014420 88.940392,214.091309 
	C89.345543,214.252197 89.738892,214.813049 90.271210,215.717316 
z"/>
<path fill="#F86C17" opacity="1.000000" stroke="none" 
	d="
M118.982254,90.351166 
	C119.282043,90.503761 119.601646,90.961319 119.924255,91.714127 
	C119.618866,91.558289 119.310471,91.107208 118.982254,90.351166 
z"/>
<path fill="#F86C17" opacity="1.000000" stroke="none" 
	d="
M117.663475,87.931458 
	C117.898300,88.005852 118.237419,88.287033 118.398178,88.761642 
	C118.108688,88.660889 117.958008,88.388618 117.663475,87.931458 
z"/>
<path fill="#EC7127" opacity="1.000000" stroke="none" 
	d="
M224.991425,115.718170 
	C224.789856,115.787064 224.517410,115.603073 224.143631,115.189697 
	C224.335052,115.128647 224.627808,115.296974 224.991425,115.718170 
z"/>
<path fill="#EC7127" opacity="1.000000" stroke="none" 
	d="
M234.880341,124.839478 
	C234.533127,124.960205 234.309479,124.732086 234.100861,124.199257 
	C234.340988,124.162735 234.636993,124.361427 234.880341,124.839478 
z"/>
<path fill="#EC7127" opacity="1.000000" stroke="none" 
	d="
M403.943665,221.739853 
	C403.670776,221.902542 403.403961,221.713013 403.115601,221.189804 
	C403.306976,221.135117 403.592163,221.312286 403.943665,221.739853 
z"/>
<path fill="#EC7127" opacity="1.000000" stroke="none" 
	d="
M404.832214,222.813873 
	C404.524445,222.924545 404.308319,222.707855 404.082092,222.210098 
	C404.294434,222.176163 404.578369,222.362000 404.832214,222.813873 
z"/>
<path fill="#EC7127" opacity="1.000000" stroke="none" 
	d="
M211.264648,107.003075 
	C210.994232,106.820473 210.997162,106.637062 211.017181,106.177979 
	C211.329651,106.089104 211.625000,106.275902 212.002213,106.719429 
	C211.902054,106.984871 211.720016,106.993576 211.264648,107.003075 
z"/>
<path fill="#EC7127" opacity="1.000000" stroke="none" 
	d="
M223.980255,114.703827 
	C223.699249,114.889351 223.430908,114.713348 223.143494,114.199005 
	C223.341721,114.131264 223.631241,114.291809 223.980255,114.703827 
z"/>
<path fill="#EC7127" opacity="1.000000" stroke="none" 
	d="
M222.975891,113.665031 
	C222.701141,113.906616 222.422073,113.767868 222.057129,113.331100 
	C222.253693,113.219543 222.587143,113.303421 222.975891,113.665031 
z"/>
<path fill="#EC7127" opacity="1.000000" stroke="none" 
	d="
M220.991882,112.735405 
	C220.776367,112.932961 220.500397,112.802795 220.120926,112.403259 
	C220.280777,112.312759 220.585434,112.404022 220.991882,112.735405 
z"/>
<path fill="#EC7127" opacity="1.000000" stroke="none" 
	d="
M231.027832,120.974716 
	C231.350876,121.101250 231.635391,121.271683 231.996155,121.686310 
	C232.072433,121.930489 231.977539,122.011993 231.739014,121.916412 
	C231.261871,121.620659 231.067596,121.384041 230.917709,121.110985 
	C230.917709,121.110985 230.989273,121.018616 231.027832,120.974716 
z"/>
<path fill="#EC7127" opacity="1.000000" stroke="none" 
	d="
M219.012604,111.725662 
	C218.819214,111.788231 218.536270,111.597359 218.140488,111.172035 
	C218.326111,111.115799 218.624573,111.294014 219.012604,111.725662 
z"/>
<path fill="#EC7127" opacity="1.000000" stroke="none" 
	d="
M217.983704,110.711212 
	C217.875519,110.975632 217.699707,110.988861 217.259308,111.010635 
	C216.994141,110.841141 216.993561,110.663109 217.021255,110.219360 
	C217.338379,110.122437 217.627243,110.291229 217.983704,110.711212 
z"/>
<path fill="#EC7127" opacity="1.000000" stroke="none" 
	d="
M213.968094,107.702011 
	C213.708542,107.938461 213.424988,107.801727 213.047211,107.366867 
	C213.232849,107.260239 213.563217,107.346924 213.968094,107.702011 
z"/>
<path fill="#FA640E" opacity="1.000000" stroke="none" 
	d="
M67.078003,157.973312 
	C67.570251,159.468704 68.530273,160.996216 68.350739,162.375412 
	C68.230995,163.295303 65.992188,164.885651 65.562637,164.644226 
	C64.190239,163.872879 63.219582,162.386749 61.404091,160.435196 
	C58.278748,161.301422 54.095020,162.052032 50.278297,163.668961 
	C47.907093,164.673508 46.105022,166.586807 48.257164,170.034744 
	C51.906944,175.882065 50.491879,177.980774 43.555405,177.996689 
	C37.860569,178.009766 32.165684,177.999359 26.457998,177.999359 
	C29.605339,173.885330 33.269817,170.844025 34.572594,167.001923 
	C36.788708,160.466217 29.747448,161.515137 25.876245,159.026031 
	C39.692032,154.964096 52.942524,158.122528 66.544792,157.936935 
	C67.006058,157.898468 67.061165,157.942368 67.078003,157.973312 
z"/>
<path fill="#FA640E" opacity="1.000000" stroke="none" 
	d="
M18.836395,158.046997 
	C19.569889,158.462067 19.960241,158.860504 20.350590,159.258972 
	C19.156946,159.461029 17.963305,159.663101 16.769663,159.865158 
	C16.688478,159.469894 16.607294,159.074615 16.526110,158.679337 
	C17.181824,158.463013 17.837540,158.246689 18.836395,158.046997 
z"/>
<path fill="#000000" opacity="1.000000" stroke="none" 
	d="
M275.948578,437.101318 
	C268.867310,444.811798 265.193024,453.601959 265.922089,464.361664 
	C266.672974,475.444000 276.633362,488.593445 287.554260,492.271576 
	C294.988342,494.775360 302.061707,495.313019 309.460999,493.739441 
	C310.005981,498.947754 309.996155,503.616486 311.090546,508.010223 
	C312.249695,512.664062 314.159424,517.203735 316.286163,521.525146 
	C318.854462,526.743591 322.423828,531.495117 324.721680,536.811157 
	C326.021790,539.818909 325.836670,543.545837 325.969452,546.962463 
	C326.156128,551.764954 326.016602,556.580139 326.016602,561.808289 
	C324.139557,561.904602 322.538818,562.056274 320.937988,562.057983 
	C304.272522,562.076172 287.600616,561.802917 270.944885,562.205566 
	C264.504791,562.361267 258.114929,564.143005 251.671982,564.939636 
	C250.039932,565.141479 247.946060,564.909363 246.653854,564.020020 
	C238.604401,558.480286 230.578506,552.883789 222.844223,546.917969 
	C218.815994,543.810791 214.966232,540.676941 215.819321,534.075134 
	C216.855011,526.060486 212.247452,520.171753 206.460281,514.665283 
	C197.545944,506.183380 189.332611,496.949615 181.113678,487.773438 
	C180.206711,486.760834 180.431610,483.354034 181.439484,482.217407 
	C193.203293,468.950439 191.077438,451.055359 179.997726,439.523224 
	C179.567886,439.075867 179.341751,438.432770 179.482925,437.452789 
	C211.946304,437.050232 243.947433,437.075775 275.948578,437.101318 
z"/>
<path fill="#000000" opacity="1.000000" stroke="none" 
	d="
M131.088577,74.958344 
	C130.900269,74.674492 130.711960,74.390640 130.203857,73.786438 
	C129.689514,73.159927 129.410980,72.999382 129.048477,72.984444 
	C129.048477,72.984444 129.026764,72.968376 128.914917,72.667046 
	C127.888573,71.558861 126.974083,70.751999 126.059593,69.945137 
	C125.889816,69.663498 125.720039,69.381859 125.175064,68.713852 
	C123.549736,67.210739 122.299606,66.093987 121.033829,64.983521 
	C121.018188,64.989807 121.023483,64.956573 120.953445,64.714012 
	C120.607361,64.295158 120.331314,64.118858 120.015121,63.713478 
	C119.974983,63.484386 119.829285,63.042637 119.829285,63.042637 
	C113.659088,56.577560 107.488892,50.112484 100.553490,42.845627 
	C113.122169,44.027321 125.524559,39.826447 136.421844,48.023239 
	C137.153793,48.573803 138.213669,48.688385 139.714905,49.389969 
	C149.164413,49.836323 158.020050,49.898457 166.875702,49.960587 
	C165.739838,55.333553 164.526642,60.691639 163.489410,66.083580 
	C162.403870,71.726463 160.622131,77.412460 160.691269,83.060684 
	C160.807404,92.546921 168.439346,97.161980 175.185852,102.050453 
	C188.615784,111.781685 202.496536,120.963890 215.259933,131.500778 
	C219.528748,135.024918 221.562531,141.772766 223.546753,147.423218 
	C226.319016,155.317764 228.086929,163.564987 230.630829,172.262955 
	C232.059860,176.569275 233.142639,180.273956 234.225433,183.978622 
	C237.135681,194.340515 240.045929,204.702423 242.488708,215.518372 
	C211.724884,215.945862 181.428513,215.919296 151.132141,215.892731 
	C150.964432,212.133408 150.933273,208.360992 150.574417,204.619995 
	C150.379791,202.590988 149.627060,200.615509 149.031891,197.959854 
	C147.973434,195.869217 147.009155,194.434631 146.044891,193.000031 
	C146.044891,193.000031 146.032135,192.967834 145.910492,192.634506 
	C144.542786,191.184113 143.296738,190.067047 142.050690,188.949966 
	C142.050690,188.949966 141.995621,188.980576 141.955933,188.710175 
	C141.614502,188.247879 141.312759,188.056015 141.011032,187.864136 
	C141.011032,187.864136 140.952850,187.464722 140.942261,186.975952 
	C140.595139,186.379974 140.258591,186.272781 139.922043,186.165573 
	C139.480270,185.825058 139.038483,185.484558 138.292725,184.701233 
	C136.996796,183.004669 135.732422,181.877701 135.076096,180.467712 
	C134.066422,178.298676 132.459106,175.726471 132.878204,173.690186 
	C134.827499,164.218887 138.018616,154.971176 139.496994,145.446594 
	C140.423645,139.476578 139.103241,133.157776 138.871841,126.533180 
	C138.969467,114.461891 139.196121,102.846901 138.864929,91.247833 
	C138.775070,88.100288 137.000549,85.000847 135.999237,81.879333 
	C135.988632,81.525192 135.829620,81.260033 135.248779,80.673683 
	C133.679733,78.495125 132.384155,76.726738 131.088577,74.958344 
z"/>
<path fill="#000000" opacity="1.000000" stroke="none" 
	d="
M308.038574,285.167084 
	C301.627716,285.406891 295.217468,285.666229 288.805603,285.875427 
	C286.670044,285.945129 284.530243,285.886444 281.794647,285.886444 
	C283.644348,270.907227 285.446594,256.312103 287.344055,240.945969 
	C291.369995,240.945969 295.620636,240.945969 300.810120,240.950684 
	C325.255798,240.918472 348.762604,240.881531 372.269440,240.844604 
	C374.118347,241.324844 375.967255,241.805084 378.445190,242.448700 
	C377.727386,245.193375 377.264130,247.719437 376.408661,250.104858 
	C372.805664,260.151459 368.883698,270.088959 365.517609,280.212402 
	C364.338226,283.759399 362.710449,285.836548 358.353851,285.634949 
	C341.178497,285.227509 324.608551,285.197296 308.038574,285.167084 
z"/>
<path fill="#000000" opacity="1.000000" stroke="none" 
	d="
M189.940552,284.777740 
	C188.805939,277.223022 187.586090,269.679871 186.561813,262.110229 
	C185.630524,255.227829 184.911789,248.316666 184.069275,241.162766 
	C210.033585,241.162766 235.625977,241.162766 262.420288,241.162766 
	C260.969360,255.988586 259.527863,270.718109 258.032288,286.000183 
	C253.186600,286.000183 248.576157,286.000183 243.274414,285.596069 
	C225.035599,285.053864 207.488083,284.915802 189.940552,284.777740 
z"/>
<path fill="#000000" opacity="1.000000" stroke="none" 
	d="
M318.964142,355.179871 
	C303.878387,356.734039 288.792664,358.288239 272.836395,359.932129 
	C273.198547,357.314575 273.654816,354.848083 273.860291,352.360870 
	C274.308044,346.940887 274.623779,341.510040 275.002350,336.084290 
	C275.165009,333.752991 275.164246,331.391144 275.560791,329.099030 
	C276.601318,323.084076 277.819397,317.099792 279.416473,310.560547 
	C304.201660,310.021729 328.537048,310.025604 352.872467,310.029480 
	C352.912445,310.195221 352.952454,310.360992 353.003235,311.009644 
	C353.014008,311.492493 352.923309,311.983490 352.923309,311.983490 
	C352.923309,311.983490 352.991852,311.987091 352.628113,312.113251 
	C351.481720,315.158081 350.699097,318.076782 349.916504,320.995453 
	C349.916504,320.995453 349.986115,320.992676 349.637177,321.090210 
	C348.838684,322.789551 348.389130,324.391357 347.939575,325.993195 
	C347.939575,325.993195 347.998322,326.002228 347.658081,326.140259 
	C346.849792,328.189270 346.381744,330.100250 345.913696,332.011230 
	C345.913696,332.011230 345.989532,331.994171 345.629425,332.101685 
	C344.158875,335.808502 343.048462,339.407776 341.938019,343.007050 
	C341.938019,343.007050 342.003937,343.007629 341.732178,343.068542 
	C341.371979,343.473755 341.283539,343.818115 341.195099,344.162445 
	C341.195099,344.162445 341.059479,344.455383 340.730133,344.753357 
	C339.907318,346.048737 339.413849,347.046143 338.920349,348.043518 
	C338.025177,348.810028 337.130035,349.576569 335.825653,350.740509 
	C334.591248,351.752258 333.766022,352.366577 332.940826,352.980896 
	C332.940826,352.980896 332.999939,352.997772 332.671326,353.000916 
	C331.854584,353.337738 331.366425,353.671448 330.878265,354.005127 
	C330.878265,354.005127 330.432159,354.067963 329.778900,354.060822 
	C325.738464,354.429077 322.351318,354.804474 318.964142,355.179871 
z"/>
<path fill="#000000" opacity="1.000000" stroke="none" 
	d="
M169.127182,310.255005 
	C170.429474,318.765991 171.744034,327.275116 173.030991,335.788422 
	C174.666611,346.608215 176.279892,357.431396 178.025009,369.067963 
	C174.812668,369.067963 171.681229,368.745178 168.637634,369.125458 
	C157.283066,370.544189 145.969116,372.293945 134.605637,373.627380 
	C133.208145,373.791382 130.563705,372.485748 130.249985,371.368805 
	C124.655251,351.450073 119.331322,331.455322 113.955376,311.475220 
	C113.913918,311.321136 113.958244,311.143982 114.442581,310.492188 
	C132.990829,310.089539 151.059006,310.172272 169.127182,310.255005 
z"/>
<path fill="#000000" opacity="1.000000" stroke="none" 
	d="
M255.006287,310.085022 
	C253.721207,320.970184 252.374054,331.848511 251.179077,342.743561 
	C250.640579,347.653229 250.224335,352.591583 250.100052,357.525696 
	C250.024170,360.538635 249.352356,361.863098 245.919785,362.135162 
	C232.122787,363.228882 218.356735,364.715698 204.583145,366.096008 
	C203.636490,366.190887 202.721695,366.603760 201.111282,367.062805 
	C198.722275,348.312988 196.348404,329.682129 194.442932,310.530151 
	C214.942963,310.034363 234.974625,310.059692 255.006287,310.085022 
z"/>
<path fill="#000000" opacity="1.000000" stroke="none" 
	d="
M108.895622,285.190155 
	C108.016968,284.014252 106.694504,282.961578 106.328514,281.643341 
	C102.789635,268.897125 99.407166,256.107422 96.004448,243.323639 
	C95.881508,242.861786 96.010986,242.332764 96.521187,241.398163 
	C115.062622,240.902237 133.105698,240.843185 151.148773,240.784149 
	C153.954224,240.784149 156.759659,240.784149 159.703690,240.784149 
	C161.756989,255.623947 163.739716,269.953644 165.847305,285.185822 
	C161.943161,285.451752 157.942596,285.724243 153.263443,285.592407 
	C138.021759,285.188751 123.458694,285.189453 108.895622,285.190155 
z"/>
<path fill="#000000" opacity="1.000000" stroke="none" 
	d="
M141.171753,472.694824 
	C136.593124,465.353943 135.649246,458.417725 140.919037,451.221558 
	C144.898331,445.787659 153.372803,443.113953 159.641266,445.855774 
	C173.138641,451.759399 175.531281,465.186035 164.940460,475.592865 
	C162.583664,477.908722 152.797806,479.768066 149.672684,478.162170 
	C146.795074,476.683472 144.166092,474.721008 141.171753,472.694824 
z"/>
<path fill="#000000" opacity="1.000000" stroke="none" 
	d="
M316.843079,456.578674 
	C320.004456,463.639771 317.305298,469.394745 312.852783,473.800751 
	C309.024567,477.589020 303.990845,479.728058 297.844238,478.512756 
	C291.297241,477.218231 286.539886,473.910095 284.575653,467.862488 
	C282.928223,462.790161 282.258667,457.030792 286.170013,452.409302 
	C290.440979,447.362823 295.576080,443.641846 302.817963,445.370911 
	C309.074402,446.864777 313.273102,451.058228 316.843079,456.578674 
z"/>
<path fill="#F86812" opacity="1.000000" stroke="none" 
	d="
M138.791046,126.995468 
	C139.103241,133.157776 140.423645,139.476578 139.496994,145.446594 
	C138.018616,154.971176 134.827499,164.218887 132.878204,173.690186 
	C132.459106,175.726471 134.066422,178.298676 135.076096,180.467712 
	C135.732422,181.877701 136.996796,183.004669 138.023010,184.616608 
	C135.641998,183.605804 133.226746,182.236816 130.168365,180.503296 
	C130.773483,176.157623 131.723328,171.763123 131.904388,167.337143 
	C132.077057,163.116653 131.448212,158.863342 131.154953,154.367203 
	C132.238663,154.367203 133.807251,154.367203 135.212387,154.367203 
	C139.374161,145.825928 137.650497,136.745224 138.215363,127.421417 
	C138.415466,126.969887 138.791046,126.995468 138.791046,126.995468 
z"/>
<path fill="#ED8141" opacity="1.000000" stroke="none" 
	d="
M275.667603,436.795532 
	C243.947433,437.075775 211.946304,437.050232 179.482727,437.105103 
	C180.209351,436.787781 181.397751,436.044952 182.587555,436.042694 
	C212.883560,435.984833 243.179703,436.001556 273.475800,436.030548 
	C274.112885,436.031158 274.749695,436.330048 275.667603,436.795532 
z"/>
<path fill="#D88D5F" opacity="1.000000" stroke="none" 
	d="
M151.000046,216.172028 
	C181.428513,215.919296 211.724884,215.945862 242.481064,215.904449 
	C241.762238,216.255157 240.584351,217.036942 239.404861,217.039352 
	C210.478912,217.098541 181.552795,217.078598 152.626740,217.040588 
	C152.040222,217.039825 151.454208,216.656281 151.000046,216.172028 
z"/>
<path fill="#FFC5A3" opacity="1.000000" stroke="none" 
	d="
M352.659119,309.669220 
	C328.537048,310.025604 304.201660,310.021729 279.400452,310.141541 
	C279.755554,309.824799 280.575409,309.001770 281.397491,308.999573 
	C304.600952,308.937561 327.804596,308.956268 351.008240,308.979828 
	C351.487518,308.980316 351.966583,309.194489 352.659119,309.669220 
z"/>
<path fill="#FFFCBE" opacity="1.000000" stroke="none" 
	d="
M371.952148,240.533539 
	C348.762604,240.881531 325.255798,240.918472 301.259216,240.899017 
	C301.668976,240.526810 302.569183,239.933472 303.467865,239.935760 
	C326.190277,239.993317 348.912537,240.113388 371.952148,240.533539 
z"/>
<path fill="#FFC5A3" opacity="1.000000" stroke="none" 
	d="
M254.773193,309.722595 
	C234.974625,310.059692 214.942963,310.034363 194.443085,310.086914 
	C194.253494,309.772308 194.533340,309.035400 194.810577,309.036377 
	C214.720551,309.106781 234.630325,309.235870 254.773193,309.722595 
z"/>
<path fill="#FFC5A3" opacity="1.000000" stroke="none" 
	d="
M168.902771,309.863464 
	C151.059006,310.172272 132.990829,310.089539 114.455399,310.081329 
	C114.567856,309.753510 115.146782,309.000977 115.727386,308.999695 
	C132.911911,308.961517 150.096634,308.994354 167.281250,309.041199 
	C167.747345,309.042480 168.212677,309.322083 168.902771,309.863464 
z"/>
<path fill="#FFFCBE" opacity="1.000000" stroke="none" 
	d="
M150.863525,240.453735 
	C133.105698,240.843185 115.062622,240.902237 96.561707,240.990143 
	C97.118538,240.636017 98.133514,239.918900 99.147865,239.919785 
	C116.291374,239.934677 133.434814,240.038910 150.863525,240.453735 
z"/>
<path fill="#FFA085" opacity="1.000000" stroke="none" 
	d="
M190.176682,285.151367 
	C207.488083,284.915802 225.035599,285.053864 242.811005,285.558960 
	C226.454681,285.999542 209.870514,286.083649 193.286255,286.119568 
	C192.328873,286.121643 191.370651,285.732178 190.176682,285.151367 
z"/>
<path fill="#ED8141" opacity="1.000000" stroke="none" 
	d="
M138.871841,126.533180 
	C138.791046,126.995468 138.415466,126.969887 138.228851,126.948471 
	C138.015930,122.929283 137.989609,118.931511 137.939270,114.472397 
	C137.271011,103.590492 136.626785,93.169945 135.990906,82.314362 
	C137.000549,85.000847 138.775070,88.100288 138.864929,91.247833 
	C139.196121,102.846901 138.969467,114.461891 138.871841,126.533180 
z"/>
<path fill="#FFA085" opacity="1.000000" stroke="none" 
	d="
M308.342590,285.454041 
	C324.608551,285.197296 341.178497,285.227509 357.968018,285.654297 
	C341.673950,285.947571 325.160278,285.844269 308.342590,285.454041 
z"/>
<path fill="#FFA085" opacity="1.000000" stroke="none" 
	d="
M109.219421,285.472839 
	C123.458694,285.189453 138.021759,285.188751 152.812836,285.555511 
	C138.541626,285.867157 124.042427,285.811371 109.219421,285.472839 
z"/>
<path fill="#F86C17" opacity="1.000000" stroke="none" 
	d="
M234.449051,183.751877 
	C233.142639,180.273956 232.059860,176.569275 230.955139,172.464539 
	C230.933212,172.064468 231.015152,171.998459 231.315186,172.116623 
	C232.413910,172.823318 233.212616,173.411850 234.011322,174.000381 
	C234.010254,174.749359 234.009201,175.498322 234.011963,176.621658 
	C234.234756,179.172394 234.453720,181.348755 234.449051,183.751877 
z"/>
<path fill="#ED8141" opacity="1.000000" stroke="none" 
	d="
M319.280731,355.419098 
	C322.351318,354.804474 325.738464,354.429077 329.564575,354.130066 
	C326.534790,354.690430 323.066040,355.174377 319.280731,355.419098 
z"/>
<path fill="#ED8141" opacity="1.000000" stroke="none" 
	d="
M342.265442,342.857544 
	C343.048462,339.407776 344.158875,335.808502 345.619629,332.064087 
	C344.844299,335.515320 343.718597,339.111664 342.265442,342.857544 
z"/>
<path fill="#ED8141" opacity="1.000000" stroke="none" 
	d="
M350.245270,320.834656 
	C350.699097,318.076782 351.481720,315.158081 352.610718,312.083679 
	C352.162750,314.843231 351.368378,317.758575 350.245270,320.834656 
z"/>
<path fill="#F86812" opacity="1.000000" stroke="none" 
	d="
M124.817833,178.208649 
	C125.444504,179.233368 125.730522,180.222610 126.016541,181.211853 
	C125.301071,181.182709 124.585609,181.153549 123.870132,181.124390 
	C124.072479,180.140640 124.274834,179.156906 124.817833,178.208649 
z"/>
<path fill="#EC7127" opacity="1.000000" stroke="none" 
	d="
M142.036652,189.326233 
	C143.296738,190.067047 144.542786,191.184113 145.894470,192.627914 
	C144.674271,191.870605 143.348434,190.786560 142.036652,189.326233 
z"/>
<path fill="#EC7127" opacity="1.000000" stroke="none" 
	d="
M146.013672,193.371765 
	C147.009155,194.434631 147.973434,195.869217 148.882385,197.643494 
	C147.878860,196.569946 146.930664,195.156723 146.013672,193.371765 
z"/>
<path fill="#F86812" opacity="1.000000" stroke="none" 
	d="
M123.338974,127.936462 
	C122.674194,127.220078 122.347481,126.439545 122.028893,125.321938 
	C122.777550,124.989914 123.518089,124.994965 124.629311,125.000008 
	C125.000000,125.000000 124.999695,124.999695 124.999695,124.999695 
	C124.558807,125.957237 124.117920,126.914780 123.338974,127.936462 
z"/>
<path fill="#F86812" opacity="1.000000" stroke="none" 
	d="
M125.000153,125.000153 
	C125.162857,123.866295 125.325409,122.732285 125.487953,121.598274 
	C125.927315,121.694664 126.366669,121.791054 126.806023,121.887451 
	C126.426582,122.877892 126.047134,123.868340 125.333694,124.929245 
	C124.999695,124.999695 125.000000,125.000000 125.000153,125.000153 
z"/>
<path fill="#ED8141" opacity="1.000000" stroke="none" 
	d="
M348.311554,325.925903 
	C348.389130,324.391357 348.838684,322.789551 349.628113,321.056580 
	C349.539795,322.569794 349.111664,324.214203 348.311554,325.925903 
z"/>
<path fill="#F86812" opacity="1.000000" stroke="none" 
	d="
M129.107056,217.677216 
	C130.076553,217.278900 131.147934,217.176727 132.624878,217.080078 
	C131.756607,217.381531 130.482773,217.677460 129.107056,217.677216 
z"/>
<path fill="#ED8141" opacity="1.000000" stroke="none" 
	d="
M346.203186,331.791840 
	C346.381744,330.100250 346.849792,328.189270 347.651581,326.111267 
	C347.487793,327.820312 346.990234,329.696381 346.203186,331.791840 
z"/>
<path fill="#F86812" opacity="1.000000" stroke="none" 
	d="
M121.521332,171.717987 
	C122.036369,172.042984 122.344040,172.567963 122.651711,173.092941 
	C122.387733,173.211212 122.123756,173.329483 121.859779,173.447754 
	C121.677841,172.937820 121.495903,172.427902 121.521332,171.717987 
z"/>
<path fill="#ED8141" opacity="1.000000" stroke="none" 
	d="
M339.281006,347.966003 
	C339.413849,347.046143 339.907318,346.048737 340.721741,344.914551 
	C340.575653,345.814606 340.108643,346.851532 339.281006,347.966003 
z"/>
<path fill="#ED8141" opacity="1.000000" stroke="none" 
	d="
M333.301880,352.969177 
	C333.766022,352.366577 334.591248,351.752258 335.720764,351.020081 
	C335.237701,351.587280 334.450317,352.272369 333.301880,352.969177 
z"/>
<path fill="#ED8141" opacity="1.000000" stroke="none" 
	d="
M331.196411,353.994629 
	C331.366425,353.671448 331.854584,353.337738 332.668091,352.970337 
	C332.500488,353.285797 332.007507,353.634949 331.196411,353.994629 
z"/>
<path fill="#ED8141" opacity="1.000000" stroke="none" 
	d="
M341.384766,343.997986 
	C341.283539,343.818115 341.371979,343.473755 341.730499,343.035583 
	C341.949402,343.282440 341.807343,343.579712 341.384766,343.997986 
z"/>
<path fill="#EC7127" opacity="1.000000" stroke="none" 
	d="
M141.105255,188.115265 
	C141.312759,188.056015 141.614502,188.247879 141.986481,188.705399 
	C141.770996,188.769501 141.485229,188.567947 141.105255,188.115265 
z"/>
<path fill="#ED8141" opacity="1.000000" stroke="none" 
	d="
M353.089539,311.919800 
	C352.923309,311.983490 353.014008,311.492493 353.083374,311.252533 
	C353.265228,311.206299 353.398132,311.392395 353.475739,311.599213 
	C353.494843,311.650146 353.333893,311.768677 353.089539,311.919800 
z"/>
<path fill="#EC7127" opacity="1.000000" stroke="none" 
	d="
M140.014618,186.370483 
	C140.258591,186.272781 140.595139,186.379974 140.883545,186.782867 
	C140.531418,186.999527 140.288696,186.831802 140.014618,186.370483 
z"/>
<path fill="#FA640E" opacity="1.000000" stroke="none" 
	d="
M234.318832,173.865814 
	C233.212616,173.411850 232.413910,172.823318 231.357178,172.084915 
	C231.069839,170.563034 231.040527,169.191040 231.011353,167.406723 
	C233.665710,166.364182 237.769836,169.558853 238.764633,173.249191 
	C237.360092,173.412811 235.993225,173.572037 234.318832,173.865814 
z"/>
<path fill="#F86812" opacity="1.000000" stroke="none" 
	d="
M119.432312,63.031555 
	C119.829285,63.042637 119.974983,63.484386 120.113632,63.935127 
	C120.444221,64.664070 120.701286,64.854309 121.023483,64.956573 
	C121.023483,64.956573 121.018188,64.989807 121.016998,65.384811 
	C121.011551,66.852188 121.007301,67.924568 121.003052,68.996948 
	C121.003052,68.996948 121.000000,69.000000 120.998474,69.001526 
	C118.304832,68.163742 115.612709,67.324425 112.920593,66.485107 
	C112.931404,65.811073 112.942215,65.137039 112.953026,64.463005 
	C114.980469,63.982162 117.007904,63.501320 119.432312,63.031555 
z"/>
<path fill="#F0B48B" opacity="1.000000" stroke="none" 
	d="
M166.599457,49.661549 
	C158.020050,49.898457 149.164413,49.836323 140.088104,49.387581 
	C148.686035,49.121487 157.504623,49.241997 166.599457,49.661549 
z"/>
<path fill="#FC670C" opacity="1.000000" stroke="none" 
	d="
M174.999084,87.000885 
	C174.044571,86.452835 173.090973,85.903908 172.137360,85.354980 
	C172.517029,84.925262 172.896683,84.495544 173.276337,84.065826 
	C173.845123,84.809883 174.413895,85.553940 174.992249,86.648079 
	C175.001831,86.998169 175.000000,87.000000 174.999084,87.000885 
z"/>
<path fill="#F86C17" opacity="1.000000" stroke="none" 
	d="
M206.999390,108.999390 
	C206.299744,110.935173 205.600693,112.871567 204.798523,115.093651 
	C202.113693,113.118736 199.977356,111.547279 197.710754,109.879997 
	C199.915466,105.321007 203.236633,108.257088 206.627136,108.993790 
	C207.001221,109.001221 207.000000,109.000000 206.999390,108.999390 
z"/>
<path fill="#F86C17" opacity="1.000000" stroke="none" 
	d="
M230.611618,121.046265 
	C231.067596,121.384041 231.261871,121.620659 231.688644,121.953476 
	C231.915009,122.504227 231.953217,122.922325 232.000519,123.654816 
	C231.475800,125.143089 230.941971,126.316963 230.408157,127.490837 
	C229.880814,127.555679 229.353470,127.620522 228.826126,127.685364 
	C228.522385,125.363617 228.218643,123.041862 227.963409,120.358795 
	C228.776459,120.325508 229.540985,120.653526 230.611618,121.046265 
z"/>
<path fill="#F86C17" opacity="1.000000" stroke="none" 
	d="
M183.998795,91.128036 
	C183.715683,92.493286 183.145981,93.660355 182.576279,94.827415 
	C181.834885,93.886887 181.093491,92.946365 180.352097,92.005836 
	C181.472137,91.647179 182.592163,91.288521 183.998795,91.128036 
z"/>
<path fill="#F86C17" opacity="1.000000" stroke="none" 
	d="
M131.063049,75.324127 
	C132.384155,76.726738 133.679733,78.495125 135.015228,80.615051 
	C133.715927,79.207703 132.376724,77.448814 131.063049,75.324127 
z"/>
<path fill="#F86C17" opacity="1.000000" stroke="none" 
	d="
M121.409630,68.997818 
	C121.007301,67.924568 121.011551,66.852188 121.032639,65.378525 
	C122.299606,66.093987 123.549736,67.210739 124.932701,68.638374 
	C123.982430,68.965729 122.899315,68.982208 121.409630,68.997818 
z"/>
<path fill="#F86C17" opacity="1.000000" stroke="none" 
	d="
M123.174576,80.354576 
	C123.800186,80.395584 124.347168,80.745926 124.894150,81.096252 
	C124.522804,81.510918 124.151466,81.925583 123.780121,82.340240 
	C123.552071,81.781464 123.324013,81.222687 123.174576,80.354576 
z"/>
<path fill="#F86C17" opacity="1.000000" stroke="none" 
	d="
M126.049881,70.315987 
	C126.974083,70.751999 127.888573,71.558861 128.907227,72.655945 
	C128.020981,72.193062 127.030563,71.439949 126.049881,70.315987 
z"/>
<path fill="#F86C17" opacity="1.000000" stroke="none" 
	d="
M129.152786,73.198410 
	C129.410980,72.999382 129.689514,73.159927 129.956299,73.703484 
	C129.708832,73.855988 129.451691,73.679825 129.152786,73.198410 
z"/>
<path fill="#F86C17" opacity="1.000000" stroke="none" 
	d="
M120.953445,64.714012 
	C120.701286,64.854309 120.444221,64.664070 120.153778,64.164215 
	C120.331314,64.118858 120.607361,64.295158 120.953445,64.714012 
z"/>
</svg>