<?xml version="1.0" encoding="UTF-8"?>
<svg version="1.1" xmlns="http://www.w3.org/2000/svg" width="408" height="612">
<path d="M0,0 L50,0 L60,5 L97,6 L103,10 L104,12 L104,21 L95,52 L96,58 L104,65 L115,73 L126,81 L131,84 L131,86 L136,88 L145,95 L151,102 L155,115 L162,140 L169,165 L176,189 L176,192 L312,192 L317,195 L320,199 L321,207 L314,228 L302,261 L294,283 L286,305 L278,327 L271,338 L263,345 L251,351 L235,354 L198,358 L154,362 L120,365 L65,370 L40,372 L30,374 L26,378 L26,386 L31,390 L252,391 L258,394 L261,398 L261,407 L256,412 L255,413 L239,414 L245,421 L249,431 L249,445 L245,455 L242,459 L243,472 L244,483 L257,506 L259,512 L259,549 L255,554 L249,557 L177,558 L166,560 L156,559 L151,557 L138,547 L124,536 L115,529 L111,522 L110,507 L103,499 L96,493 L96,491 L92,489 L85,481 L78,472 L72,471 L64,471 L53,468 L44,461 L38,454 L34,444 L34,431 L38,420 L43,414 L26,413 L13,407 L13,405 L9,403 L9,401 L7,401 L2,391 L1,388 L1,376 L5,366 L12,358 L17,354 L21,353 L16,333 L9,310 L-6,257 L-18,217 L-30,176 L-34,161 L-34,157 L-76,157 L-81,154 L-84,147 L-83,138 L-81,134 L-77,132 L-70,131 L-23,131 L-15,135 L-10,141 L-2,168 L4,189 L4,192 L47,192 L46,183 L40,173 L31,160 L29,156 L29,146 L35,120 L33,68 L29,62 L21,54 L14,46 L4,37 L-3,32 L-5,26 L-5,6 Z M15,19 L19,24 L27,31 L35,40 L37,40 L39,44 L45,51 L48,54 L51,59 L52,63 L53,103 L53,122 L48,143 L46,151 L49,157 L54,162 L62,171 L65,180 L65,192 L157,192 L153,175 L143,142 L137,121 L134,112 L130,107 L115,96 L99,85 L82,72 L77,66 L75,60 L76,49 L81,31 L81,26 L54,25 L41,19 Z M10,217 L12,226 L18,250 L21,261 L80,261 L76,231 L74,217 Z M98,217 L101,243 L104,261 L172,261 L174,246 L176,228 L176,217 Z M201,217 L198,239 L196,261 L277,261 L281,252 L290,228 L292,222 L292,218 L289,217 Z M28,286 L30,297 L36,318 L43,343 L45,349 L58,348 L92,345 L89,324 L87,306 L84,288 L83,286 Z M108,286 L108,294 L115,342 L135,341 L163,338 L164,337 L169,289 L169,286 Z M193,286 L190,305 L187,335 L207,334 L245,330 L253,324 L256,319 L263,299 L267,288 L267,286 Z M93,413 L99,422 L102,429 L103,439 L101,448 L97,456 L94,460 L96,465 L100,470 L108,477 L109,479 L111,479 L113,483 L115,483 L117,487 L121,491 L123,491 L125,495 L129,503 L130,517 L148,531 L162,541 L171,540 L176,539 L240,538 L240,515 L234,503 L226,488 L225,484 L224,470 L209,470 L197,466 L191,462 L189,459 L187,459 L185,454 L182,448 L181,444 L181,430 L185,420 L190,413 Z M63,421 L56,425 L52,431 L51,438 L54,447 L60,452 L64,454 L73,454 L79,451 L84,445 L86,436 L83,428 L77,423 L73,421 Z M211,421 L203,425 L199,430 L198,432 L198,444 L205,452 L213,455 L221,454 L227,450 L232,442 L232,434 L226,426 L220,422 Z " fill="#FB640D" transform="translate(85,23)"/>
<path d="M0,0 L7,4 L20,14 L30,21 L32,22 L32,24 L37,26 L46,33 L51,39 L49,40 L46,39 L45,36 L42,35 L43,42 L38,47 L39,56 L40,59 L40,66 L39,66 L35,52 L31,46 L16,35 L0,24 L-13,14 L-9,12 L-9,14 L-1,13 L1,11 L2,2 L0,2 Z " fill="#F96D18" transform="translate(184,85)"/>
<path d="M0,0 L21,0 L21,1 L-34,6 L-59,8 L-69,10 L-73,14 L-73,22 L-68,26 L152,27 L152,28 L-69,29 L-74,27 L-76,21 L-75,10 L-68,6 L-49,4 L-18,2 L-16,1 Z " fill="#FE9A76" transform="translate(184,387)"/>
<path d="M0,0 L3,0 L3,2 L15,1 L91,1 L94,4 L94,10 L93,11 L93,17 L90,18 L89,23 L86,28 L85,26 L91,9 L92,5 L1,4 L1,12 L-1,26 L-2,26 L-2,9 L-1,1 Z " fill="#E16F2C" transform="translate(285,236)"/>
<path d="M0,0 L7,3 L10,7 L10,16 L5,21 L4,22 L-12,23 L-9,26 L-10,29 L-13,29 L-14,25 L-14,21 L2,21 L2,19 L5,19 L6,15 L9,14 L9,9 L7,9 L6,7 L3,6 L3,3 L-218,2 L-218,1 Z " fill="#E86922" transform="translate(336,414)"/>
<path d="M0,0 L37,0 L42,2 L42,5 L68,6 L69,7 L68,20 L65,27 L64,39 L68,40 L70,41 L68,53 L71,54 L72,57 L68,55 L62,48 L60,42 L61,31 L67,8 L40,8 L27,2 L2,2 L3,4 L0,3 Z M62,40 Z " fill="#EB8B48" transform="translate(99,41)"/>
<path d="M0,0 L5,0 L2,3 L-1,4 L-73,5 L-84,7 L-94,6 L-99,4 L-100,2 L-95,3 L-83,3 L-74,2 L-73,1 Z " fill="#EF904E" transform="translate(335,576)"/>
<path d="M0,0 L63,0 L63,16 L62,19 L61,33 L60,38 L59,52 L53,57 L52,59 L49,58 L19,57 L19,56 L56,52 L61,4 L62,1 L1,1 L0,3 Z " fill="#F5A974" transform="translate(192,308)"/>
<path d="M0,0 L58,1 L65,2 L66,3 L67,13 L68,14 L68,33 L67,33 L64,9 L64,4 L0,4 Z " fill="#EC9758" transform="translate(95,236)"/>
<path d="M0,0 L1,0 L1,12 L-1,22 L80,22 L80,24 L-3,24 L-3,12 L-2,11 Z " fill="#F28B55" transform="translate(282,262)"/>
<path d="M0,0 L21,0 L21,1 L-34,6 L-59,8 L-69,10 L-73,14 L-73,22 L-71,24 L-71,27 L-74,27 L-76,21 L-75,10 L-68,6 L-49,4 L-18,2 L-16,1 Z " fill="#ED8E55" transform="translate(184,387)"/>
<path d="M0,0 L7,0 L7,6 L8,7 L9,62 L8,73 L6,79 L4,79 L4,93 L5,102 L2,98 L1,96 L1,86 L7,60 L5,8 L1,2 Z " fill="#F0874A" transform="translate(113,83)"/>
<path d="M0,0 L1,3 L0,5 L0,29 L6,30 L7,33 L9,34 L10,31 L11,35 L14,38 L14,40 L18,40 L18,43 L20,43 L20,45 L22,45 L24,48 L28,50 L29,56 L31,57 L28,57 L22,50 L17,45 L6,35 L-1,30 L-3,24 L-3,4 Z " fill="#EE843B" transform="translate(83,25)"/>
<path d="M0,0 L3,0 L3,2 L86,3 L86,4 L1,4 L1,12 L-1,26 L-2,26 L-2,9 L-1,1 Z " fill="#F6BD7E" transform="translate(285,236)"/>
<path d="M0,0 L2,2 L2,5 L4,5 L3,16 L-57,17 L-57,14 L2,14 L0,4 Z " fill="#F38A53" transform="translate(163,270)"/>
<path d="M0,0 L47,0 L55,4 L58,7 L57,9 L53,7 L53,5 L48,4 L33,3 L-9,3 L-7,1 Z " fill="#F09059" transform="translate(15,154)"/>
<path d="M0,0 L1,0 L4,22 L5,34 L73,34 L74,30 L74,35 L4,36 L2,30 L1,30 L0,11 L-1,6 Z " fill="#FDA384" transform="translate(184,250)"/>
<path d="M0,0 L2,0 L2,2 L4,2 L3,28 L-60,28 L-61,31 L-77,31 L-79,30 L-78,28 L-72,29 L-62,27 L2,27 L1,4 Z " fill="#D17241" transform="translate(323,534)"/>
<path d="M0,0 L99,0 L99,1 L3,2 L9,10 L7,14 L6,8 L4,8 L3,6 L-2,5 Z " fill="#ED7F3E" transform="translate(176,435)"/>
<path d="M0,0 L39,1 L45,5 L46,7 L46,16 L44,23 L43,19 L44,8 L42,8 L40,5 L37,5 L37,3 L1,3 Z " fill="#EB8F53" transform="translate(143,28)"/>
<path d="M0,0 L3,4 L5,10 L5,24 L1,34 L-2,38 L-1,51 L0,62 L1,66 L-2,65 L-4,50 L-4,36 L-2,36 L-2,33 L0,33 L0,29 L2,29 L2,10 L0,4 Z " fill="#EC8648" transform="translate(329,444)"/>
<path d="M0,0 L9,0 L8,2 L-5,4 L-20,5 L-22,6 L-48,7 L-48,5 Z " fill="#EE8548" transform="translate(320,353)"/>
<path d="M0,0 L7,0 L11,1 L11,15 L10,16 L9,37 L8,45 L6,45 L6,31 L9,2 L-4,2 Z " fill="#EC8344" transform="translate(252,238)"/>
<path d="M0,0 L7,3 L10,7 L10,16 L5,21 L4,22 L-12,23 L-9,26 L-10,29 L-13,29 L-14,25 L-14,21 L2,21 L2,19 L5,19 L6,15 L9,14 L9,9 L7,9 L6,7 L3,6 L3,3 L-4,2 Z " fill="#EE8143" transform="translate(336,414)"/>
<path d="M0,0 L11,0 L11,1 L-2,3 L-39,7 L-44,7 L-42,5 L-34,5 L-34,3 L-18,2 L-17,1 Z " fill="#EA884E" transform="translate(322,374)"/>
<path d="M0,0 L1,0 L1,5 L-1,5 L-1,18 L0,26 L1,31 L3,31 L3,33 L5,33 L7,36 L11,37 L12,42 L8,41 L8,39 L4,37 L4,35 L2,35 L-3,25 L-4,22 L-4,10 Z " fill="#ED864E" transform="translate(90,389)"/>
<path d="M0,0 L3,3 L5,9 L5,46 L1,50 L1,46 L3,46 L2,7 L0,4 Z " fill="#EF895D" transform="translate(339,526)"/>
<path d="M0,0 L3,1 L3,4 L5,4 L5,15 L3,15 L3,18 L1,18 L-1,22 L-2,27 L-4,27 L-4,25 L-8,27 L-22,27 L-24,23 L-16,25 L-8,24 L-2,20 L2,13 L2,5 Z " fill="#EE8846" transform="translate(314,452)"/>
<path d="M0,0 L1,0 L4,9 L4,16 L2,18 L-5,19 L-32,19 L-32,18 L-10,16 L2,16 L0,6 Z " fill="#ED9764" transform="translate(175,352)"/>
<path d="M0,0 L5,2 L3,14 L6,15 L7,18 L3,16 L-3,9 L-4,2 Z " fill="#F96810" transform="translate(164,80)"/>
<path d="M0,0 L6,0 L7,2 L7,21 L5,17 L5,3 L-1,4 L-10,4 L-16,2 L-16,1 Z " fill="#EC8746" transform="translate(304,490)"/>
<path d="M0,0 L37,0 L42,2 L41,6 L35,6 L27,2 L2,2 L3,4 L0,3 Z " fill="#F17D38" transform="translate(99,41)"/>
<path d="M0,0 L50,0 L58,4 L54,6 L53,4 L45,3 L43,4 L43,2 L-1,2 Z " fill="#E58A4F" transform="translate(85,23)"/>
<path d="M0,0 L20,0 L16,5 L13,4 L-17,3 L-17,2 Z " fill="#F17E40" transform="translate(228,362)"/>
<path d="M0,0 L2,1 L10,28 L14,42 L13,46 L10,37 L10,35 L8,35 L4,13 L2,13 L0,4 Z " fill="#EC915B" transform="translate(73,163)"/>
<path d="M0,0 L1,4 L-2,5 L-4,10 L-6,10 L-6,14 L-8,14 L-8,34 L-6,34 L-6,39 L-8,38 L-10,31 L-10,17 L-6,7 Z " fill="#EB8042" transform="translate(275,436)"/>
<path d="M0,0 L1,0 L1,10 L-1,26 L-3,41 L-4,41 L-4,26 L-3,11 L-1,5 Z " fill="#EE935A" transform="translate(276,314)"/>
<path d="M0,0 L26,0 L26,1 L-2,4 L-11,4 L-8,2 Z " fill="#EC884D" transform="translate(241,381)"/>
<path d="M0,0 L25,1 L29,6 L28,9 L23,4 L11,4 L0,1 Z " fill="#EE9663" transform="translate(138,490)"/>
<path d="M0,0 L5,1 L29,1 L27,3 L16,5 L6,4 L1,2 Z " fill="#EE8849" transform="translate(235,578)"/>
<path d="M0,0 L1,4 L-2,7 L-5,7 L-5,9 L-19,9 L-24,6 L-24,4 L-18,6 L-9,6 L-3,3 Z " fill="#EB8A4E" transform="translate(167,470)"/>
<path d="M0,0 L1,0 L3,12 L3,19 L13,18 L13,20 L11,21 L2,21 L0,16 L-3,14 L-1,14 Z " fill="#EE752E" transform="translate(197,346)"/>
<path d="M0,0 L3,0 L3,3 L9,2 L8,6 L8,15 L6,15 L4,21 L2,21 L4,10 L1,2 Z " fill="#F37F43" transform="translate(166,449)"/>
<path d="M0,0 L1,0 L4,22 L4,35 L3,35 L2,30 L1,30 L0,11 L-1,6 Z " fill="#ED8A4C" transform="translate(184,250)"/>
<path d="M0,0 L5,4 L5,6 L9,8 L10,11 L14,13 L14,15 L16,15 L16,17 L11,16 L11,13 L8,14 L6,12 L6,8 L2,7 L0,8 Z " fill="#F17631" transform="translate(180,487)"/>
<path d="M0,0 L14,0 L14,1 L1,3 L-4,8 L-6,11 L-7,16 L-8,16 L-8,5 L-3,1 Z " fill="#EA864B" transform="translate(144,443)"/>
<path d="M0,0 L1,0 L0,12 L-2,21 L-2,27 L-6,29 L-5,18 Z " fill="#ED9057" transform="translate(165,54)"/>
<path d="M0,0 L1,0 L3,12 L5,14 L7,24 L8,25 L8,31 L6,29 L-2,3 L-2,1 Z " fill="#ED7D37" transform="translate(66,227)"/>
<path d="M0,0 L1,0 L1,17 L0,25 L-2,25 L-2,11 L-1,1 Z " fill="#EB7735" transform="translate(260,258)"/>
<path d="M0,0 L2,4 L6,3 L7,9 L11,13 L11,15 L15,14 L15,17 L18,19 L16,20 L8,14 L2,7 L0,3 Z " fill="#EC7C3D" transform="translate(121,470)"/>
<path d="M0,0 L0,3 L-3,9 L-5,9 L-6,18 L-8,30 L-9,30 L-9,17 L-5,6 Z " fill="#F29469" transform="translate(128,437)"/>
<path d="M0,0 L2,3 L8,24 L7,28 L5,27 L2,11 L0,4 Z M4,27 Z " fill="#EE9152" transform="translate(240,143)"/>
<path d="M0,0 L1,3 L0,5 L-1,25 L-3,24 L-3,4 Z " fill="#F18F53" transform="translate(83,25)"/>
<path d="M0,0 L16,0 L15,2 L-10,4 L-8,2 L0,2 Z " fill="#F0935D" transform="translate(288,377)"/>
<path d="M0,0 L1,0 L3,10 L-2,11 L-7,15 L-11,14 L-4,9 L-1,4 Z " fill="#F2702D" transform="translate(341,338)"/>
<path d="M0,0 L1,0 L1,16 L-2,27 L-3,27 L-2,12 Z " fill="#EB8C54" transform="translate(254,308)"/>
<path d="M0,0 L2,2 L4,8 L4,12 L6,12 L6,17 L8,17 L8,28 L6,24 L0,3 Z " fill="#EE8640" transform="translate(85,298)"/>
<path d="M0,0 L1,0 L4,24 L5,28 L2,27 L0,12 Z " fill="#E97638" transform="translate(325,482)"/>
<path d="M0,0 L4,1 L-1,4 L-2,6 L-2,14 L0,16 L0,19 L-3,19 L-5,13 L-4,2 Z " fill="#F08F55" transform="translate(113,395)"/>
<path d="M0,0 L2,3 L6,18 L6,22 L4,22 L2,16 L0,17 Z " fill="#F08543" transform="translate(116,323)"/>
<path d="M0,0 L7,4 L15,10 L12,11 L9,10 L8,8 L3,9 L2,8 L2,2 L0,2 Z " fill="#F08745" transform="translate(184,85)"/>
<path d="M0,0 L2,2 L4,9 L4,28 L3,28 L0,4 Z " fill="#EB9058" transform="translate(159,241)"/>
<path d="M0,0 L4,4 L6,12 L6,17 L3,14 L1,14 L1,5 Z " fill="#F17511" transform="translate(145,192)"/>
<path d="M0,0 L2,0 L2,12 L3,21 L0,17 L-1,15 L-1,5 Z " fill="#EC8149" transform="translate(115,164)"/>
<path d="M0,0 L6,0 L2,1 L1,4 L-15,4 L-17,3 L-16,1 L-10,2 Z " fill="#F18E52" transform="translate(261,561)"/>
<path d="M0,0 L2,0 L-1,11 L-5,22 L-6,22 L-5,12 L-2,4 Z " fill="#ED8645" transform="translate(377,304)"/>
<path d="M0,0 L3,1 L4,14 L5,14 L8,26 L4,22 L2,18 L1,3 Z " fill="#E88855" transform="translate(194,527)"/>
<path d="M0,0 L2,4 L2,22 L0,18 L-1,2 Z " fill="#EC8847" transform="translate(173,329)"/>
<path d="M0,0 L1,4 L1,10 L-2,11 L-3,16 L-6,21 L-7,19 Z " fill="#EA7E42" transform="translate(377,243)"/>
<path d="M0,0 L3,3 L3,6 L5,6 L6,13 L7,14 L7,22 L5,19 L0,2 Z " fill="#EE8750" transform="translate(224,152)"/>
<path d="M0,0 L6,4 L12,11 L5,11 L4,7 L3,9 L2,4 Z " fill="#EF833F" transform="translate(102,45)"/>
<path d="M0,0 L2,1 L6,2 L10,1 L8,9 L-1,3 L-2,1 Z " fill="#F28849" transform="translate(173,97)"/>
<path d="M0,0 L1,0 L4,9 L4,16 L2,18 L-7,18 L-7,17 L1,16 Z " fill="#ED7C3B" transform="translate(175,352)"/>
<path d="M0,0 L2,0 L0,11 L-2,17 L-3,17 L-4,7 L-2,6 Z " fill="#F28541" transform="translate(184,51)"/>
<path d="M0,0 L3,3 L9,14 L9,16 L7,16 L7,13 L3,11 L1,7 L-1,6 Z " fill="#EF8542" transform="translate(330,510)"/>
<path d="M0,0 L2,0 L5,9 L8,13 L5,13 L4,15 L1,10 Z " fill="#F2863E" transform="translate(135,461)"/>
<path d="M0,0 L1,4 L-4,18 L-5,18 L-5,10 L-3,5 L-1,5 Z " fill="#EC8E4B" transform="translate(384,286)"/>
<path d="M0,0 L1,3 L-5,19 L-6,19 L-6,12 L-4,12 L-4,6 L-2,6 L-2,2 L0,2 Z " fill="#ED8948" transform="translate(403,234)"/>
<path d="M0,0 L6,0 L6,1 L-4,4 L-9,8 L-12,12 L-11,7 L-10,4 L-5,1 Z " fill="#EE8B51" transform="translate(295,443)"/>
<path d="M0,0 L2,3 L3,9 L8,8 L15,8 L15,10 L2,10 L0,9 Z " fill="#ED9154" transform="translate(127,363)"/>
<path d="M0,0 L1,3 L-4,15 L-8,19 L-8,13 L-5,13 L-4,9 Z " fill="#EE904C" transform="translate(365,339)"/>
<path d="M0,0 L3,0 L4,21 L2,17 Z " fill="#EA8A51" transform="translate(168,308)"/>
<path d="M0,0 L19,0 L22,3 L22,9 L20,6 L20,4 L17,3 L17,2 L0,1 Z " fill="#F47517" transform="translate(357,237)"/>
<path d="M0,0 L7,4 L13,9 L10,10 L8,9 L8,7 L3,7 L2,4 L0,3 Z " fill="#EE8E4F" transform="translate(217,109)"/>
<path d="M0,0 L4,1 L8,3 L9,9 L11,10 L8,10 L2,3 L0,2 Z " fill="#F2975A" transform="translate(103,72)"/>
<path d="M0,0 L1,3 L-5,20 L-6,20 L-5,8 L-3,7 Z " fill="#ED8148" transform="translate(396,253)"/>
<path d="M0,0 L2,1 L1,7 L-1,7 L0,19 L-2,17 L-3,7 Z " fill="#F09F6C" transform="translate(4,157)"/>
<path d="M0,0 L11,7 L12,9 L7,9 L4,10 L3,3 L0,3 Z " fill="#F08647" transform="translate(199,96)"/>
<path d="M0,0 L2,0 L2,2 L4,2 L3,27 L2,27 L1,4 Z " fill="#E08856" transform="translate(323,534)"/>
<path d="M0,0 L7,1 L10,3 L27,4 L27,5 L9,5 L0,1 Z " fill="#EB8C58" transform="translate(102,431)"/>
<path d="M0,0 L3,1 L3,5 L5,5 L5,17 L4,17 Z " fill="#EF8145" transform="translate(102,359)"/>
<path d="M0,0 L2,4 L4,4 L5,7 L4,13 L6,14 L4,17 L0,4 Z " fill="#EF8441" transform="translate(97,339)"/>
<path d="M0,0 L7,4 L12,9 L10,10 L6,9 L5,5 L1,4 Z " fill="#F0844A" transform="translate(232,553)"/>
<path d="M0,0 L4,2 L4,5 L7,5 L7,8 L10,9 L9,12 L3,7 L0,2 Z " fill="#EA8C4F" transform="translate(269,475)"/>
<path d="M0,0 L1,4 L-2,7 L-5,7 L-5,9 L-11,9 L-7,8 L-7,5 L-2,2 Z " fill="#F18041" transform="translate(167,470)"/>
<path d="M0,0 L6,1 L1,6 L-4,9 L-6,8 L-4,6 L-1,6 L-2,1 Z " fill="#F39156" transform="translate(347,362)"/>
<path d="M0,0 L1,0 L5,16 L4,20 L2,17 L0,10 Z " fill="#ED9257" transform="translate(101,264)"/>
<path d="M0,0 L3,2 L3,7 L7,9 L7,11 L10,12 L11,15 L7,13 L1,6 Z " fill="#EB9662" transform="translate(160,83)"/>
<path d="M0,0 L7,3 L8,4 L8,9 L3,6 L3,3 L-4,2 Z " fill="#EC7D37" transform="translate(336,414)"/>
<path d="M0,0 L5,5 L10,10 L12,13 L8,11 L3,8 L2,4 L0,4 Z " fill="#ED844B" transform="translate(199,506)"/>
<path d="M0,0 L2,4 L5,13 L5,18 L3,16 L2,8 L0,8 Z " fill="#ED9660" transform="translate(235,125)"/>
<path d="M0,0 L1,0 L3,12 L3,18 L0,14 Z " fill="#EE9360" transform="translate(197,346)"/>
<path d="M0,0 L2,0 L2,2 L5,3 L5,8 L7,8 L8,12 L6,13 L0,1 Z " fill="#EE834B" transform="translate(316,521)"/>
<path d="M0,0 L6,1 L7,6 L9,6 L10,10 L6,8 Z " fill="#ED854B" transform="translate(171,504)"/>
<path d="M0,0 L6,0 L11,2 L11,6 L13,7 L10,7 L5,3 L0,1 Z " fill="#EE965A" transform="translate(302,444)"/>
<path d="M0,0 L1,4 L0,11 L3,16 L1,17 L1,15 L-2,14 L-2,6 Z " fill="#EB9964" transform="translate(180,68)"/>
<path d="M0,0 L9,0 L9,1 L2,1 L3,4 L5,6 L-1,7 L-2,4 Z " fill="#F36C1A" transform="translate(97,40)"/>
<path d="M0,0 L2,0 L3,3 L2,13 L0,9 L-1,2 Z " fill="#EF7735" transform="translate(83,285)"/>
<path d="M0,0 L1,0 L1,6 L-1,9 L-2,14 L-3,14 L-3,3 Z " fill="#F38E55" transform="translate(139,445)"/>
<path d="M0,0 L5,4 L5,6 L8,7 L6,8 L2,7 L0,8 Z " fill="#F08848" transform="translate(180,487)"/>
<path d="M0,0 L7,0 L7,8 L5,8 L1,2 Z " fill="#F2843D" transform="translate(113,83)"/>
<path d="M0,0 L4,0 L4,3 L6,3 L6,5 L8,5 L8,7 L4,6 L0,2 Z " fill="#EE7931" transform="translate(97,65)"/>
<path d="M0,0 L5,2 L10,4 L9,7 L5,6 L3,2 L0,2 Z " fill="#F46817" transform="translate(134,25)"/>
<path d="M0,0 L1,2 L-2,7 L-5,9 L-9,8 L-2,3 Z " fill="#ED8350" transform="translate(339,344)"/>
<path d="M0,0 L2,0 L-1,11 L-3,13 L-2,3 Z " fill="#ED8347" transform="translate(369,326)"/>
<path d="M0,0 L1,0 L4,12 L3,15 L2,11 L0,11 Z " fill="#ED9661" transform="translate(97,249)"/>
<path d="M0,0 L2,1 L4,7 L3,12 L1,12 Z " fill="#F36A21" transform="translate(327,442)"/>
<path d="M0,0 L2,0 L2,3 L4,3 L3,9 L1,11 Z " fill="#F28440" transform="translate(386,270)"/>
<path d="M0,0 L4,3 L4,5 L7,6 L8,10 L5,9 L3,4 L0,3 Z " fill="#EC9160" transform="translate(126,69)"/>
<path d="M0,0 L2,1 L2,4 L8,5 L9,10 L4,7 L1,5 Z " fill="#E68748" transform="translate(81,50)"/>
<path d="M0,0 L4,1 L6,8 L4,10 L0,2 Z " fill="#ED8742" transform="translate(311,511)"/>
<path d="M0,0 L2,2 L2,11 L-1,14 L-1,9 L1,9 Z " fill="#EE9A5F" transform="translate(344,419)"/>
<path d="M0,0 L6,1 L7,6 L3,5 L3,3 L0,2 Z " fill="#EF7D3F" transform="translate(95,425)"/>
<path d="M0,0 L2,2 L2,5 L4,5 L2,12 L1,12 Z " fill="#EF7D3A" transform="translate(163,270)"/>
<path d="M0,0 L1,4 L-2,13 L-4,13 L-1,3 Z " fill="#EC9262" transform="translate(369,264)"/>
<path d="M0,0 L2,0 L4,10 L3,8 L0,7 Z " fill="#EE8042" transform="translate(93,239)"/>
<path d="M0,0 L1,0 L2,11 L3,15 L0,14 Z " fill="#F6AF68" transform="translate(327,495)"/>
<path d="M0,0 L0,3 L-3,9 L-6,10 L-4,5 Z " fill="#EC945E" transform="translate(128,437)"/>
<path d="M0,0 L2,3 L5,7 L5,10 L2,10 L0,4 Z " fill="#E97C3E" transform="translate(108,404)"/>
<path d="M0,0 L7,1 L9,6 L4,4 Z " fill="#EE945E" transform="translate(181,106)"/>
<path d="M0,0 L1,2 L-2,8 L-4,9 L-5,4 L-1,4 Z " fill="#F28A56" transform="translate(185,471)"/>
<path d="M0,0 L3,1 L3,4 L5,4 L5,13 L4,13 L3,6 L0,2 Z " fill="#EF772E" transform="translate(314,452)"/>
<path d="M0,0 L2,3 L3,11 L1,11 L0,8 Z " fill="#EF975E" transform="translate(119,334)"/>
<path d="M0,0 L1,0 L1,9 L-1,9 L-1,11 L-3,11 Z " fill="#EC8344" transform="translate(345,327)"/>
<path d="M0,0 L2,2 L4,6 L4,12 L2,10 L0,4 Z " fill="#EA7E46" transform="translate(70,246)"/>
<path d="M0,0 L5,0 L6,8 L2,4 Z " fill="#F18D53" transform="translate(122,191)"/>
<path d="M0,0 L2,0 L0,11 L-1,11 L-1,2 Z " fill="#F2995D" transform="translate(184,51)"/>
<path d="M0,0 L1,3 L0,4 L-6,4 L-9,1 L-2,2 Z " fill="#F27F3F" transform="translate(140,43)"/>
<path d="M0,0 L4,4 L5,8 L3,10 L2,4 L0,4 Z " fill="#EF8E4C" transform="translate(180,439)"/>
<path d="M0,0 L10,2 L9,4 L-2,3 Z " fill="#EF7511" transform="translate(260,378)"/>
<path d="M0,0 L5,4 L6,7 L2,6 L2,4 L0,4 Z " fill="#EC9056" transform="translate(139,185)"/>
<path d="M0,0 L1,0 L4,12 L0,8 Z " fill="#EB7734" transform="translate(198,541)"/>
<path d="M0,0 L0,3 L0,7 L-3,7 L-3,1 Z " fill="#F38E4E" transform="translate(180,480)"/>
<path d="M0,0 L4,4 L5,10 L3,7 L3,5 L0,4 Z " fill="#EA9365" transform="translate(145,192)"/>
<path d="M0,0 L3,0 L4,9 L1,5 Z " fill="#ED9353" transform="translate(114,176)"/>
<path d="M0,0 L3,2 L3,4 L5,4 L5,6 L0,5 Z " fill="#EC8E4B" transform="translate(191,498)"/>
<path d="M0,0 L6,1 L9,4 L3,3 Z " fill="#EB9868" transform="translate(279,487)"/>
<path d="M0,0 L3,1 L4,8 L0,3 Z " fill="#F16915" transform="translate(83,205)"/>
<path d="M0,0 L6,1 L6,6 L0,1 Z " fill="#F4A16C" transform="translate(212,128)"/>
<path d="M0,0 L1,0 L2,6 L-2,8 L-2,3 Z " fill="#F68A54" transform="translate(161,75)"/>
</svg>
